<svg width="157" height="27" viewBox="0 0 157 27" fill="none" xmlns="http://www.w3.org/2000/svg">
<path d="M9.35156 10.0918C9.35156 10.2441 9.36328 10.4316 9.38672 10.6543C9.41016 10.877 9.44531 11.0996 9.49219 11.3223C9.55078 11.5332 9.62695 11.7324 9.7207 11.9199C9.81445 12.1074 9.92578 12.248 10.0547 12.3418H10.7227C11.1445 12.3418 11.5078 12.3184 11.8125 12.2715C12.1289 12.2246 12.4863 12.1191 12.8848 11.9551C13.2598 11.7793 13.623 11.6035 13.9746 11.4277C14.3379 11.252 14.666 11.0527 14.959 10.8301C15.2637 10.5957 15.5215 10.3203 15.7324 10.0039C15.9434 9.6875 16.0957 9.30078 16.1895 8.84375C16.2012 8.80859 16.2129 8.74414 16.2246 8.65039C16.248 8.54492 16.2656 8.43359 16.2773 8.31641C16.3008 8.19922 16.3184 8.08789 16.3301 7.98242C16.3535 7.86523 16.3711 7.78906 16.3828 7.75391C16.3828 7.71875 16.3887 7.64258 16.4004 7.52539C16.4238 7.4082 16.4473 7.28516 16.4707 7.15625C16.5059 7.02734 16.5352 6.9043 16.5586 6.78711C16.582 6.66992 16.5996 6.59961 16.6113 6.57617V6.41797V5.78516C16.6113 5.59766 16.5996 5.41016 16.5762 5.22266C16.5527 5.03516 16.4883 4.86523 16.3828 4.71289C16.3242 4.63086 16.248 4.52539 16.1543 4.39648C16.0723 4.25586 15.9844 4.12109 15.8906 3.99219C15.8086 3.86328 15.7324 3.75195 15.6621 3.6582C15.5918 3.56445 15.5449 3.51172 15.5215 3.5C15.252 3.125 14.9297 2.83203 14.5547 2.62109C14.1797 2.41016 13.793 2.20508 13.3945 2.00586C13.3711 1.98242 13.3066 1.95898 13.2012 1.93555C13.0957 1.90039 13.0195 1.87109 12.9727 1.84766C12.6211 1.77734 12.2988 1.73047 12.0059 1.70703C11.7246 1.67188 11.3848 1.64258 10.9863 1.61914H10.9336C10.6172 1.61914 10.3594 1.67773 10.1602 1.79492C9.97266 1.90039 9.83203 2.04687 9.73828 2.23438C9.64453 2.41016 9.58008 2.62109 9.54492 2.86719C9.52148 3.10156 9.50977 3.3418 9.50977 3.58789C9.50977 3.72852 9.50977 3.86914 9.50977 4.00977C9.52148 4.15039 9.52734 4.28516 9.52734 4.41406C9.52734 4.47266 9.52148 4.54883 9.50977 4.64258C9.50977 4.73633 9.50977 4.8125 9.50977 4.87109C9.50977 4.89453 9.50391 4.93555 9.49219 4.99414C9.48047 5.05273 9.46289 5.11719 9.43945 5.1875C9.42773 5.24609 9.41602 5.30469 9.4043 5.36328C9.39258 5.42187 9.38672 5.45703 9.38672 5.46875C9.375 5.49219 9.36328 5.55664 9.35156 5.66211C9.35156 5.75586 9.35156 5.87305 9.35156 6.01367C9.35156 6.14258 9.35156 6.27734 9.35156 6.41797C9.35156 6.55859 9.35156 6.66992 9.35156 6.75195C9.35156 6.83398 9.35156 6.94531 9.35156 7.08594C9.35156 7.22656 9.35156 7.36719 9.35156 7.50781C9.35156 7.64844 9.35156 7.77148 9.35156 7.87695C9.36328 7.9707 9.375 8.02344 9.38672 8.03516C9.38672 8.04688 9.38672 8.08203 9.38672 8.14062C9.39844 8.1875 9.41602 8.24023 9.43945 8.29883L9.50977 8.54492V8.63281C9.50977 8.87891 9.48047 9.125 9.42188 9.37109C9.375 9.61719 9.35156 9.85742 9.35156 10.0918ZM9.50977 23.5742C9.50977 23.6211 9.52734 23.6797 9.5625 23.75C9.59766 23.8203 9.62695 23.873 9.65039 23.9082C10.002 24.3301 10.4004 24.5879 10.8457 24.6816C11.3027 24.7754 11.8066 24.8223 12.3574 24.8223C12.709 24.8223 13.0254 24.8047 13.3066 24.7695C13.5996 24.7227 13.875 24.6523 14.1328 24.5586C14.4023 24.4648 14.666 24.3535 14.9238 24.2246C15.1934 24.084 15.4863 23.9141 15.8027 23.7148C15.8145 23.7148 15.8496 23.7031 15.9082 23.6797C15.9668 23.6562 16.0312 23.6328 16.1016 23.6094C16.1719 23.5742 16.2305 23.5449 16.2773 23.5215C16.3359 23.498 16.3711 23.4805 16.3828 23.4688C16.4062 23.4336 16.4473 23.3867 16.5059 23.3281C16.5762 23.2695 16.6465 23.2051 16.7168 23.1348C16.7871 23.0645 16.8516 23 16.9102 22.9414C16.9805 22.8711 17.0273 22.8242 17.0508 22.8008C17.332 22.3789 17.5312 21.8984 17.6484 21.3594C17.7773 20.8086 17.877 20.2988 17.9473 19.8301C17.9473 19.7949 17.9355 19.7246 17.9121 19.6191C17.9004 19.502 17.8828 19.3848 17.8594 19.2676C17.8477 19.1387 17.8359 19.0273 17.8242 18.9336C17.8125 18.8398 17.8066 18.7812 17.8066 18.7578V18.0898V17.791C17.7715 17.5684 17.7188 17.3457 17.6484 17.123C17.5781 16.8887 17.4902 16.666 17.3848 16.4551C17.2793 16.2441 17.1504 16.0508 16.998 15.875C16.8457 15.6992 16.6699 15.5469 16.4707 15.418C16.3652 15.3711 16.2422 15.3066 16.1016 15.2246C15.9609 15.1309 15.8203 15.0371 15.6797 14.9434C15.5391 14.8379 15.4043 14.7324 15.2754 14.627C15.1465 14.5215 15.0469 14.4277 14.9766 14.3457C14.7656 14.2637 14.5254 14.1758 14.2559 14.082C13.9863 13.9883 13.7051 13.9004 13.4121 13.8184C13.1191 13.7246 12.8262 13.6426 12.5332 13.5723C12.252 13.502 12 13.4375 11.7773 13.3789H11.4785C11.0684 13.3789 10.7402 13.4082 10.4941 13.4668C10.248 13.5254 10.0547 13.6367 9.91406 13.8008C9.78516 13.9531 9.69141 14.1641 9.63281 14.4336C9.57422 14.6914 9.5332 15.0195 9.50977 15.418C9.49805 15.5117 9.48633 15.6816 9.47461 15.9277C9.46289 16.1738 9.45117 16.4316 9.43945 16.7012C9.42773 16.9707 9.41602 17.2285 9.4043 17.4746C9.39258 17.709 9.38672 17.8672 9.38672 17.9492C9.38672 17.9492 9.38086 17.9902 9.36914 18.0723C9.36914 18.1543 9.36914 18.248 9.36914 18.3535C9.36914 18.4473 9.36328 18.541 9.35156 18.6348C9.35156 18.7285 9.35156 18.7988 9.35156 18.8457C9.35156 18.916 9.35156 19.0039 9.35156 19.1094C9.36328 19.2148 9.36914 19.3203 9.36914 19.4258C9.36914 19.5195 9.36914 19.6074 9.36914 19.6895C9.38086 19.7715 9.38672 19.8184 9.38672 19.8301C9.38672 19.9707 9.39258 20.2168 9.4043 20.5684C9.41602 20.9199 9.42773 21.2949 9.43945 21.6934C9.45117 22.0918 9.46289 22.4727 9.47461 22.8359C9.48633 23.1875 9.49805 23.4336 9.50977 23.5742ZM1.56445 25.5781V25.3848C1.56445 25.2441 1.59961 25.1094 1.66992 24.9805C1.75195 24.8398 1.85156 24.7168 1.96875 24.6113C2.09766 24.5059 2.23242 24.4238 2.37305 24.3652C2.51367 24.2949 2.64844 24.2598 2.77734 24.2598C2.97656 24.248 3.16992 24.2363 3.35742 24.2246C3.55664 24.2129 3.75 24.207 3.9375 24.207C4.18359 24.207 4.41797 24.2129 4.64062 24.2246C4.875 24.2363 5.09766 24.248 5.30859 24.2598C5.51953 24.2832 5.64844 24.2305 5.69531 24.1016C5.75391 23.9727 5.7832 23.8145 5.7832 23.627C5.7832 23.5684 5.77734 23.4922 5.76562 23.3984C5.76562 23.293 5.76562 23.2285 5.76562 23.2051C5.76562 22.9355 5.73633 22.666 5.67773 22.3965C5.63086 22.1152 5.60742 21.8281 5.60742 21.5352V21.4473C5.63086 21.4238 5.66016 21.3359 5.69531 21.1836C5.74219 21.0312 5.76562 20.9434 5.76562 20.9199V20.8672V20.7617C5.76562 20.7383 5.75391 20.6621 5.73047 20.5332C5.71875 20.4043 5.70117 20.2695 5.67773 20.1289C5.66602 19.9766 5.64844 19.8301 5.625 19.6895C5.61328 19.5488 5.60742 19.4609 5.60742 19.4258V16.5957C5.54883 16.4668 5.51367 16.332 5.50195 16.1914C5.49023 16.0391 5.48438 15.8926 5.48438 15.752C5.48438 15.6934 5.49023 15.5996 5.50195 15.4707C5.51367 15.3418 5.51953 15.2656 5.51953 15.2422C5.54297 15.1484 5.56641 15.0254 5.58984 14.873C5.625 14.709 5.64258 14.5684 5.64258 14.4512C5.64258 14.2871 5.63672 14.1289 5.625 13.9766C5.61328 13.8125 5.60742 13.707 5.60742 13.6602C5.61914 13.6367 5.63086 13.5664 5.64258 13.4492C5.66602 13.3203 5.68359 13.1914 5.69531 13.0625C5.71875 12.9219 5.73633 12.793 5.74805 12.6758C5.75977 12.5586 5.76562 12.4883 5.76562 12.4648V12.3418C5.74219 12.3066 5.72461 12.2598 5.71289 12.2012C5.70117 12.1309 5.68945 12.0605 5.67773 11.9902C5.66602 11.9199 5.6543 11.8555 5.64258 11.7969C5.63086 11.7383 5.61914 11.6973 5.60742 11.6738C5.60742 11.5332 5.60742 11.3398 5.60742 11.0938C5.61914 10.8477 5.625 10.5664 5.625 10.25C5.625 9.92188 5.625 9.57617 5.625 9.21289C5.63672 8.83789 5.64258 8.46289 5.64258 8.08789C5.64258 7.71289 5.63672 7.34375 5.625 6.98047C5.625 6.61719 5.625 6.27734 5.625 5.96094C5.625 5.64453 5.61914 5.36328 5.60742 5.11719C5.60742 4.87109 5.60742 4.68359 5.60742 4.55469C5.60742 4.50781 5.60156 4.41406 5.58984 4.27344C5.57812 4.13281 5.56641 3.98633 5.55469 3.83398C5.55469 3.66992 5.54883 3.51758 5.53711 3.37695C5.52539 3.23633 5.51953 3.14258 5.51953 3.0957C5.49609 2.94336 5.39648 2.79102 5.2207 2.63867C5.04492 2.48633 4.88086 2.41016 4.72852 2.41016C4.37695 2.41016 4.01953 2.42773 3.65625 2.46289C3.30469 2.49805 2.94141 2.51562 2.56641 2.51562C2.35547 2.51562 2.16797 2.51562 2.00391 2.51562C1.83984 2.50391 1.6875 2.47461 1.54688 2.42773C1.41797 2.38086 1.30078 2.30469 1.19531 2.19922C1.10156 2.09375 1.01367 1.93555 0.931641 1.72461V1.67188C0.931641 1.55469 0.960938 1.44922 1.01953 1.35547C1.08984 1.26172 1.17188 1.18555 1.26562 1.12695C1.35938 1.05664 1.45898 1.00977 1.56445 0.986328C1.66992 0.951172 1.76953 0.933594 1.86328 0.933594C1.91016 0.933594 2.02734 0.927734 2.21484 0.916016C2.40234 0.904297 2.60742 0.892578 2.83008 0.880859C3.05273 0.869141 3.26953 0.857422 3.48047 0.845703C3.70312 0.833984 3.87305 0.828125 3.99023 0.828125H4.39453C4.58203 0.828125 4.76367 0.851562 4.93945 0.898438C5.11523 0.945313 5.30859 0.957031 5.51953 0.933594C6.28125 0.863281 7.04297 0.798828 7.80469 0.740234C8.57812 0.669922 9.36914 0.634766 10.1777 0.634766C10.5996 0.634766 11.0156 0.669922 11.4258 0.740234C11.8359 0.798828 12.2461 0.828125 12.6562 0.828125C12.7148 0.828125 12.8203 0.798828 12.9727 0.740234C13.125 0.669922 13.2246 0.634766 13.2715 0.634766C13.2949 0.634766 13.3477 0.646484 13.4297 0.669922C13.5234 0.681641 13.623 0.705078 13.7285 0.740234C13.834 0.763672 13.9277 0.787109 14.0098 0.810547C14.1035 0.822266 14.1621 0.828125 14.1855 0.828125C14.2324 0.828125 14.3672 0.822266 14.5898 0.810547C14.8125 0.798828 15.0352 0.792969 15.2578 0.792969C15.3516 0.792969 15.4336 0.798828 15.5039 0.810547C15.5859 0.822266 15.6445 0.828125 15.6797 0.828125C15.9023 0.839844 16.0898 0.875 16.2422 0.933594C16.3945 0.980469 16.541 1.03906 16.6816 1.10938C16.834 1.17969 16.9863 1.26172 17.1387 1.35547C17.3027 1.4375 17.4961 1.52539 17.7188 1.61914C17.7305 1.63086 17.7598 1.64258 17.8066 1.6543C17.8535 1.66602 17.9004 1.68359 17.9473 1.70703C18.0059 1.76562 18.0703 1.80664 18.1406 1.83008C18.2227 1.85352 18.293 1.89453 18.3516 1.95312C18.7148 2.29297 19.0371 2.65625 19.3184 3.04297C19.6113 3.42969 19.8281 3.875 19.9688 4.37891C19.9688 4.40234 19.9746 4.45508 19.9863 4.53711C19.998 4.61914 20.0098 4.71289 20.0215 4.81836C20.0449 4.91211 20.0625 5 20.0742 5.08203C20.0859 5.16406 20.0918 5.22266 20.0918 5.25781C20.1152 5.26953 20.1387 5.31641 20.1621 5.39844C20.1973 5.46875 20.2266 5.55078 20.25 5.64453C20.2852 5.72656 20.3086 5.80859 20.3203 5.89062C20.3438 5.96094 20.3555 6.00195 20.3555 6.01367C20.3555 6.03711 20.3613 6.10156 20.373 6.20703C20.3848 6.3125 20.3906 6.39453 20.3906 6.45312C20.3906 6.67578 20.3672 6.96875 20.3203 7.33203C20.2734 7.68359 20.2031 8.05273 20.1094 8.43945C20.0273 8.81445 19.9277 9.17773 19.8105 9.5293C19.6934 9.86914 19.5645 10.127 19.4238 10.3027C19.3301 10.4434 19.2188 10.5664 19.0898 10.6719C18.9727 10.7773 18.8379 10.877 18.6855 10.9707C18.5449 11.0527 18.3984 11.1348 18.2461 11.2168C18.0938 11.2988 17.9473 11.3926 17.8066 11.498C17.8066 11.5215 17.7715 11.5801 17.7012 11.6738C17.6309 11.7559 17.5723 11.7969 17.5254 11.7969C17.4551 11.8438 17.3555 11.8906 17.2266 11.9375C17.1094 11.9844 16.9922 12.043 16.875 12.1133C16.7695 12.1719 16.6758 12.248 16.5938 12.3418C16.5117 12.4238 16.4707 12.5352 16.4707 12.6758V12.8691C16.4941 12.8926 16.541 12.9336 16.6113 12.9922C16.6816 13.0391 16.7578 13.0918 16.8398 13.1504C16.9336 13.1973 17.0215 13.2441 17.1035 13.291C17.1855 13.3379 17.2441 13.3672 17.2793 13.3789C17.3145 13.4023 17.3848 13.4434 17.4902 13.502C17.5957 13.5488 17.707 13.6016 17.8242 13.6602C17.9531 13.7188 18.0703 13.7773 18.1758 13.8359C18.2812 13.8945 18.3398 13.9355 18.3516 13.959C19.4648 14.6035 20.2793 15.3594 20.7949 16.2266C21.3105 17.082 21.5684 18.1484 21.5684 19.4258C21.5684 19.8359 21.5273 20.1875 21.4453 20.4805C21.3633 20.7617 21.2871 21.084 21.2168 21.4473C21.1934 21.459 21.1816 21.5234 21.1816 21.6406C21.1816 21.7578 21.1816 21.834 21.1816 21.8691C21.1348 22.0684 21.0762 22.2852 21.0059 22.5195C20.9473 22.7422 20.8711 22.9648 20.7773 23.1875C20.6836 23.4102 20.5664 23.6152 20.4258 23.8027C20.2969 23.9902 20.1445 24.1426 19.9688 24.2598C19.9336 24.2715 19.8398 24.3242 19.6875 24.418C19.5469 24.5 19.3828 24.5996 19.1953 24.7168C19.0195 24.834 18.8379 24.957 18.6504 25.0859C18.4746 25.2031 18.334 25.2969 18.2285 25.3672C18.1816 25.3672 18.123 25.3848 18.0527 25.4199C17.9824 25.4434 17.9473 25.4668 17.9473 25.4902C17.9355 25.4902 17.8887 25.4961 17.8066 25.5078C17.7363 25.5195 17.6543 25.5312 17.5605 25.543C17.4668 25.543 17.3789 25.5488 17.2969 25.5605C17.2148 25.5723 17.1621 25.5781 17.1387 25.5781C17.1152 25.5898 17.0684 25.6133 16.998 25.6484C16.9277 25.6836 16.8457 25.7188 16.752 25.7539C16.6699 25.7891 16.5879 25.8184 16.5059 25.8418C16.4355 25.8652 16.3945 25.877 16.3828 25.877C16.3477 25.877 16.2832 25.8828 16.1895 25.8945C16.0957 25.9062 15.9844 25.9121 15.8555 25.9121C15.7266 25.9121 15.5918 25.9121 15.4512 25.9121C15.3223 25.9004 15.1934 25.8945 15.0645 25.8945C14.9473 25.8945 14.8418 25.8945 14.748 25.8945C14.666 25.8828 14.6074 25.877 14.5723 25.877C14.5254 25.8887 14.4023 25.9062 14.2031 25.9297C14.0156 25.9531 13.8105 25.9766 13.5879 26C13.3652 26.0352 13.1543 26.0645 12.9551 26.0879C12.7676 26.1113 12.6504 26.123 12.6035 26.123C12.5801 26.1465 12.498 26.1582 12.3574 26.1582C12.2285 26.1582 12.1172 26.1582 12.0234 26.1582C11.7539 26.1582 11.5312 26.1289 11.3555 26.0703C11.1914 26.0234 10.9805 26 10.7227 26H6.85547C6.79688 26 6.70312 26.0059 6.57422 26.0176C6.44531 26.0293 6.31055 26.041 6.16992 26.0527C6.0293 26.0645 5.89453 26.0762 5.76562 26.0879C5.64844 26.0996 5.56641 26.1113 5.51953 26.123C5.49609 26.1465 5.41992 26.1758 5.29102 26.2109C5.17383 26.2578 5.10938 26.2812 5.09766 26.2812C5.0625 26.2812 4.98633 26.2578 4.86914 26.2109C4.75195 26.1758 4.68164 26.1465 4.6582 26.123C4.40039 26.0879 4.13672 26.0703 3.86719 26.0703C3.60938 26.082 3.3457 26.0762 3.07617 26.0527C2.81836 26.041 2.56055 26 2.30273 25.9297C2.05664 25.8594 1.81055 25.7422 1.56445 25.5781ZM28.002 10.8301C28.002 9.76367 28.0254 8.7207 28.0723 7.70117C28.1309 6.68164 28.1602 5.66797 28.1602 4.66016C28.1602 4.57812 28.1543 4.46094 28.1426 4.30859C28.1426 4.15625 28.1426 3.99805 28.1426 3.83398C28.1426 3.6582 28.1367 3.5 28.125 3.35938C28.125 3.21875 28.125 3.11328 28.125 3.04297C28.043 2.78516 27.8965 2.60937 27.6855 2.51562C27.4746 2.41016 27.2344 2.3457 26.9648 2.32227C26.707 2.29883 26.4316 2.29297 26.1387 2.30469C25.8574 2.30469 25.5938 2.28711 25.3477 2.25195C25.1133 2.2168 24.9199 2.14063 24.7676 2.02344C24.6152 1.89453 24.5391 1.68359 24.5391 1.39062C24.5391 0.863281 24.8145 0.599609 25.3652 0.599609C26.3613 0.599609 27.3691 0.646484 28.3887 0.740234C29.4082 0.833984 30.416 0.880859 31.4121 0.880859H31.6758C31.6992 0.880859 31.752 0.875 31.834 0.863281C31.9277 0.851562 32.0215 0.839844 32.1152 0.828125C32.2207 0.816406 32.3145 0.804688 32.3965 0.792969C32.4902 0.78125 32.5488 0.769531 32.5723 0.757812C32.6426 0.746094 32.748 0.734375 32.8887 0.722656C33.0293 0.710937 33.1758 0.705078 33.3281 0.705078C33.4805 0.693359 33.6211 0.6875 33.75 0.6875C33.8789 0.675781 33.9609 0.669922 33.9961 0.669922C34.0195 0.669922 34.0781 0.669922 34.1719 0.669922C34.2773 0.658203 34.3828 0.646484 34.4883 0.634766C34.6055 0.623047 34.7109 0.617188 34.8047 0.617188C34.9102 0.605469 34.9746 0.599609 34.998 0.599609C35.0918 0.599609 35.1914 0.605469 35.2969 0.617188C35.4023 0.628906 35.502 0.646484 35.5957 0.669922C35.6895 0.681641 35.7715 0.693359 35.8418 0.705078C35.9121 0.716797 35.9531 0.722656 35.9648 0.722656C36.0469 0.746094 36.1348 0.792969 36.2285 0.863281C36.3223 0.921875 36.4102 0.998047 36.4922 1.0918C36.5742 1.18555 36.6445 1.2793 36.7031 1.37305C36.7617 1.4668 36.791 1.54883 36.791 1.61914V1.63672C36.7559 1.67188 36.7207 1.71875 36.6855 1.77734C36.6621 1.83594 36.6328 1.89453 36.5977 1.95312C36.5742 2.01172 36.5508 2.06445 36.5273 2.11133C36.5156 2.14648 36.5039 2.16406 36.4922 2.16406C36.4805 2.16406 36.4453 2.17578 36.3867 2.19922C36.3281 2.21094 36.2637 2.22852 36.1934 2.25195C36.123 2.26367 36.0527 2.27539 35.9824 2.28711C35.9238 2.29883 35.877 2.30469 35.8418 2.30469H33.873C33.627 2.30469 33.3867 2.32227 33.1523 2.35742C32.918 2.39258 32.7129 2.45703 32.5371 2.55078C32.3613 2.64453 32.2148 2.7793 32.0977 2.95508C31.9922 3.11914 31.9336 3.3418 31.9219 3.62305V5.55664C31.9219 5.56836 31.916 5.61523 31.9043 5.69727C31.8926 5.76758 31.875 5.84961 31.8516 5.94336C31.8398 6.03711 31.8281 6.125 31.8164 6.20703C31.8047 6.27734 31.7988 6.31836 31.7988 6.33008V7.63086C31.7988 7.66602 31.793 7.71875 31.7812 7.78906C31.7695 7.85938 31.752 7.93555 31.7285 8.01758C31.7051 8.11133 31.6875 8.20508 31.6758 8.29883V8.36914V8.45703C31.6758 8.49219 31.6816 8.58594 31.6934 8.73828C31.7051 8.89062 31.7168 9.05469 31.7285 9.23047C31.752 9.40625 31.7695 9.57031 31.7812 9.72266C31.793 9.875 31.7988 9.96875 31.7988 10.0039V14.2051C31.7988 14.3223 31.8047 14.5215 31.8164 14.8027C31.8281 15.084 31.8398 15.3887 31.8516 15.7168C31.8633 16.0332 31.875 16.3379 31.8867 16.6309C31.9102 16.9238 31.9219 17.1289 31.9219 17.2461C31.9219 17.4453 31.9395 17.6562 31.9746 17.8789C32.0215 18.1016 32.0449 18.2949 32.0449 18.459C32.0449 18.5996 32.0391 18.7461 32.0273 18.8984C32.0156 19.0508 32.0098 19.1387 32.0098 19.1621C32.0684 19.4551 32.1562 19.7539 32.2734 20.0586C32.3906 20.3633 32.5254 20.6621 32.6777 20.9551C32.8418 21.2363 33.0234 21.5059 33.2227 21.7637C33.4219 22.0098 33.6387 22.2266 33.873 22.4141C33.8965 22.4375 33.9609 22.4727 34.0664 22.5195C34.1836 22.5547 34.248 22.5723 34.2598 22.5723C34.7285 22.7715 35.1387 22.9531 35.4902 23.1172C35.8535 23.2812 36.2109 23.4219 36.5625 23.5391C36.9141 23.6562 37.2832 23.75 37.6699 23.8203C38.0684 23.8789 38.5488 23.9082 39.1113 23.9082C39.3574 23.9082 39.6035 23.9082 39.8496 23.9082C40.1074 23.8965 40.3535 23.873 40.5879 23.8379C40.8223 23.8027 41.0449 23.75 41.2559 23.6797C41.4785 23.6094 41.6719 23.5098 41.8359 23.3809C41.8711 23.3691 41.9297 23.3281 42.0117 23.2578C42.0938 23.1875 42.1816 23.1172 42.2754 23.0469C42.3691 22.9648 42.4512 22.8887 42.5215 22.8184C42.6035 22.748 42.6504 22.7012 42.6621 22.6777C42.6855 22.6543 42.7559 22.5957 42.873 22.502C43.002 22.4082 43.1426 22.3086 43.2949 22.2031C43.4473 22.0859 43.5879 21.9805 43.7168 21.8867C43.8457 21.793 43.9277 21.7344 43.9629 21.7109C43.9863 21.6758 44.0156 21.6348 44.0508 21.5879C44.0977 21.541 44.1445 21.5 44.1914 21.4648L44.332 21.3242C44.3438 21.2891 44.3672 21.2246 44.4023 21.1309C44.4375 21.0371 44.4668 20.9434 44.4902 20.8496C44.5254 20.7441 44.5547 20.6504 44.5781 20.5684C44.6133 20.4746 44.6309 20.4219 44.6309 20.4102C44.6426 20.375 44.6602 20.3164 44.6836 20.2344C44.707 20.1523 44.7305 20.0645 44.7539 19.9707C44.7891 19.877 44.8184 19.7891 44.8418 19.707C44.8652 19.625 44.877 19.5723 44.877 19.5488C44.9121 19.502 44.9414 19.4141 44.9648 19.2852C44.9883 19.1445 45 19.0508 45 19.0039C45 18.957 45.0059 18.875 45.0176 18.7578C45.0293 18.6289 45.0352 18.5 45.0352 18.3711C45.0352 18.2422 45.0293 18.125 45.0176 18.0195C45.0059 17.9023 45 17.8027 45 17.7207C45 17.7207 45.0059 17.6973 45.0176 17.6504C45.041 17.6035 45.0586 17.5566 45.0703 17.5098C45.0938 17.4512 45.1113 17.3984 45.123 17.3516C45.1465 17.293 45.1582 17.2578 45.1582 17.2461C45.1699 17.1758 45.1816 17.0762 45.1934 16.9473C45.2051 16.8066 45.2168 16.666 45.2285 16.5254C45.2402 16.3848 45.252 16.2559 45.2637 16.1387C45.2754 16.0215 45.2812 15.9453 45.2812 15.9102V14.3809C45.2812 13.6191 45.2578 12.8809 45.2109 12.166C45.1758 11.4395 45.1582 10.707 45.1582 9.96875C45.1582 9.76953 45.1758 9.58203 45.2109 9.40625C45.2578 9.21875 45.2812 9.03125 45.2812 8.84375C45.2812 8.08203 45.2402 7.29688 45.1582 6.48828C45.0762 5.67969 45.0234 4.86523 45 4.04492C44.9883 4.00977 44.9707 3.95703 44.9473 3.88672C44.9355 3.80469 44.918 3.72266 44.8945 3.64062C44.8711 3.54688 44.8418 3.46484 44.8066 3.39453C44.7832 3.32422 44.7656 3.27734 44.7539 3.25391C44.6836 3.03125 44.4961 2.85547 44.1914 2.72656C43.8867 2.58594 43.5469 2.46875 43.1719 2.375C42.7969 2.26953 42.4277 2.17578 42.0645 2.09375C41.7012 2.01172 41.4141 1.90039 41.2031 1.75977C41.168 1.73633 41.0859 1.66602 40.957 1.54883C40.8281 1.41992 40.7402 1.32031 40.6934 1.25L40.6582 1.21484C40.6582 1.13281 40.6992 1.05664 40.7812 0.986328C40.8633 0.904297 40.957 0.839844 41.0625 0.792969C41.1797 0.734375 41.291 0.6875 41.3965 0.652344C41.5137 0.617188 41.6016 0.599609 41.6602 0.599609C41.8711 0.599609 42.0762 0.640625 42.2754 0.722656C42.4863 0.804688 42.6973 0.857422 42.9082 0.880859C43.002 0.880859 43.166 0.886719 43.4004 0.898438C43.6348 0.910156 43.8809 0.921875 44.1387 0.933594C44.4082 0.945313 44.6543 0.957031 44.877 0.96875C45.1113 0.980469 45.2754 0.992187 45.3691 1.00391H47.1094C47.3672 1.00391 47.5898 0.998047 47.7773 0.986328C47.9766 0.974609 48.1582 0.962891 48.3223 0.951172C48.498 0.927734 48.6621 0.910156 48.8145 0.898438C48.9668 0.886719 49.125 0.880859 49.2891 0.880859H49.9043C50.2324 0.880859 50.5195 0.886719 50.7656 0.898438C51.0117 0.910156 51.3223 0.945313 51.6973 1.00391C51.7559 1.02734 51.791 1.0625 51.8027 1.10938C51.8145 1.14453 51.8203 1.19141 51.8203 1.25C51.8203 1.4375 51.7734 1.56055 51.6797 1.61914C51.5977 1.66602 51.498 1.73633 51.3809 1.83008C51.3105 1.88867 51.2051 1.95898 51.0645 2.04102C50.9355 2.12305 50.7891 2.19336 50.625 2.25195C50.5664 2.27539 50.4785 2.29883 50.3613 2.32227C50.2441 2.33398 50.1211 2.35156 49.9922 2.375C49.8633 2.38672 49.7402 2.39844 49.623 2.41016C49.5176 2.41016 49.4473 2.41016 49.4121 2.41016C49.3418 2.45703 49.248 2.49219 49.1309 2.51562C49.0723 2.52734 49.0137 2.53906 48.9551 2.55078C48.6973 2.69141 48.4922 2.84961 48.3398 3.02539C48.1875 3.20117 48.0469 3.37695 47.918 3.55273C47.8945 3.61133 47.8652 3.69336 47.8301 3.79883C47.7949 3.9043 47.7656 3.98633 47.7422 4.04492C47.7422 4.05664 47.7305 4.22656 47.707 4.55469C47.6953 4.87109 47.6777 5.25195 47.6543 5.69727C47.6309 6.13086 47.6074 6.57617 47.584 7.0332C47.5723 7.49023 47.5605 7.85938 47.5488 8.14062C47.5371 9.82812 47.4492 11.5039 47.2852 13.168C47.1328 14.832 46.9219 16.4844 46.6523 18.125C46.5938 18.4297 46.5 18.7051 46.3711 18.9512C46.2422 19.1855 46.1426 19.4375 46.0723 19.707C46.0605 19.7188 46.0488 19.7598 46.0371 19.8301C46.0254 19.8887 46.0078 19.959 45.9844 20.041C45.9727 20.1113 45.9609 20.1816 45.9492 20.252C45.9375 20.3223 45.9258 20.375 45.9141 20.4102C45.7266 20.8672 45.5273 21.2598 45.3164 21.5879C45.1055 21.916 44.8359 22.2793 44.5078 22.6777C44.1797 23.0645 43.8574 23.416 43.541 23.7324C43.2363 24.0371 42.9141 24.3184 42.5742 24.5762C42.2461 24.8223 41.8887 25.0508 41.502 25.2617C41.127 25.4609 40.7109 25.6543 40.2539 25.8418C40.1133 25.9121 39.9727 25.9648 39.832 26C39.6914 26.0234 39.5508 26.0469 39.4102 26.0703C39.2695 26.1055 39.123 26.1406 38.9707 26.1758C38.8301 26.2227 38.6895 26.293 38.5488 26.3867C38.1035 26.3516 37.6641 26.3281 37.2305 26.3164C36.7969 26.3047 36.3633 26.2871 35.9297 26.2637C35.4961 26.2402 35.0625 26.1992 34.6289 26.1406C34.207 26.082 33.7852 25.9824 33.3633 25.8418C33.3398 25.8418 33.2871 25.8242 33.2051 25.7891C33.123 25.7422 33.0234 25.6953 32.9062 25.6484C32.8008 25.5898 32.6895 25.5312 32.5723 25.4727C32.4668 25.4141 32.3848 25.3555 32.3262 25.2969C32.127 25.2031 31.8984 25.0918 31.6406 24.9629C31.3828 24.834 31.1543 24.7051 30.9551 24.5762C30.9199 24.541 30.8555 24.4766 30.7617 24.3828C30.668 24.2773 30.6094 24.207 30.5859 24.1719C30.5508 24.125 30.4805 24.0195 30.375 23.8555C30.2695 23.6797 30.1523 23.498 30.0234 23.3105C29.9062 23.1113 29.7891 22.9238 29.6719 22.748C29.5547 22.5605 29.4727 22.4258 29.4258 22.3438C29.0508 21.7578 28.7988 21.1719 28.6699 20.5859C28.5527 20 28.4531 19.4023 28.3711 18.793C28.3711 18.7461 28.3594 18.6406 28.3359 18.4766C28.3125 18.3125 28.2832 18.1367 28.248 17.9492C28.2246 17.7617 28.2012 17.5859 28.1777 17.4219C28.1543 17.2578 28.1367 17.1465 28.125 17.0879C28.125 17.041 28.125 16.9414 28.125 16.7891C28.1367 16.625 28.1426 16.4375 28.1426 16.2266C28.1426 16.0156 28.1426 15.793 28.1426 15.5586C28.1543 15.3125 28.1602 15.084 28.1602 14.873C28.1602 14.6387 28.1543 14.4395 28.1426 14.2754C28.1309 14.1113 28.125 14.0059 28.125 13.959C28.125 13.9004 28.1191 13.7598 28.1074 13.5371C28.0957 13.3145 28.0781 13.0801 28.0547 12.834C28.043 12.5762 28.0312 12.3418 28.0195 12.1309C28.0078 11.9199 28.002 11.791 28.002 11.7441V10.8301ZM60.5742 19.8828C60.5742 19.9062 60.5801 19.9531 60.5918 20.0234C60.6035 20.0938 60.6152 20.1699 60.627 20.252C60.6504 20.334 60.668 20.4102 60.6797 20.4805C60.6914 20.5391 60.6973 20.5742 60.6973 20.5859V20.8672C60.6973 20.9609 60.7031 21.0957 60.7148 21.2715C60.7266 21.4355 60.7383 21.6055 60.75 21.7812C60.7734 21.9453 60.791 22.0977 60.8027 22.2383C60.8262 22.3672 60.8496 22.4375 60.873 22.4492C60.873 22.4961 60.8848 22.5605 60.9082 22.6426C60.9434 22.7129 60.9609 22.7891 60.9609 22.8711V23.6621C60.9961 24.0137 61.1074 24.2949 61.2949 24.5059C61.4941 24.7051 61.7285 24.8574 61.998 24.9629C62.2676 25.0566 62.5547 25.1152 62.8594 25.1387C63.1641 25.1621 63.4453 25.1738 63.7031 25.1738C63.75 25.1738 63.8203 25.1738 63.9141 25.1738C64.0195 25.1738 64.125 25.1738 64.2305 25.1738C64.3359 25.1738 64.4355 25.1738 64.5293 25.1738C64.6348 25.1621 64.7109 25.1562 64.7578 25.1562C64.875 24.957 65.0449 24.8281 65.2676 24.7695C65.502 24.7109 65.7188 24.6641 65.918 24.6289C66.0234 24.6172 66.1582 24.5996 66.3223 24.5762C66.498 24.541 66.668 24.5117 66.832 24.4883C66.9961 24.4531 67.1367 24.4238 67.2539 24.4004C67.3711 24.377 67.4355 24.3652 67.4473 24.3652C67.4824 24.3418 67.5703 24.2832 67.7109 24.1895C67.8516 24.0957 68.0039 23.9961 68.168 23.8906C68.332 23.7734 68.4844 23.668 68.625 23.5742C68.7773 23.4805 68.877 23.416 68.9238 23.3809C68.9355 23.3691 68.9766 23.3457 69.0469 23.3105C69.1289 23.2754 69.2109 23.2402 69.293 23.2051C69.375 23.1582 69.457 23.1172 69.5391 23.082C69.6211 23.0469 69.6797 23.0234 69.7148 23.0117C69.7383 22.9883 69.8027 22.959 69.9082 22.9238C70.0254 22.8887 70.0957 22.8711 70.1191 22.8711C70.166 22.8359 70.2188 22.7832 70.2773 22.7129C70.3477 22.6426 70.4121 22.5664 70.4707 22.4844C70.541 22.3906 70.5996 22.3027 70.6465 22.2207C70.6934 22.1387 70.7285 22.0801 70.752 22.0449C70.7871 22.0449 70.8457 22.0332 70.9277 22.0098C71.0098 21.9746 71.0625 21.957 71.0859 21.957C71.4141 21.6172 71.7246 21.2422 72.0176 20.832C72.3223 20.4219 72.5918 20.0234 72.8262 19.6367C72.9668 19.4023 73.0547 19.1797 73.0898 18.9688C73.1367 18.7461 73.2188 18.5234 73.3359 18.3008C73.3594 18.2773 73.3828 18.2305 73.4062 18.1602C73.4297 18.0898 73.4473 18.0547 73.459 18.0547C73.4941 17.9609 73.5527 17.832 73.6348 17.668C73.7285 17.4922 73.7754 17.3809 73.7754 17.334C73.7754 17.3105 73.7871 17.2578 73.8105 17.1758C73.834 17.082 73.8574 16.9824 73.8809 16.877C73.916 16.7715 73.9395 16.6777 73.9512 16.5957C73.9746 16.502 73.9863 16.4434 73.9863 16.4199C74.0801 16.1152 74.1973 15.793 74.3379 15.4531C74.4902 15.1016 74.5664 14.7559 74.5664 14.416V14.2578C74.5664 14.2461 74.5605 14.2109 74.5488 14.1523C74.5371 14.082 74.5195 14.0117 74.4961 13.9414C74.4844 13.8594 74.4727 13.7891 74.4609 13.7305C74.4492 13.6602 74.4434 13.6133 74.4434 13.5898V12.5C74.4434 12.4883 74.4375 12.4473 74.4258 12.377C74.4141 12.3066 74.3965 12.2305 74.373 12.1484C74.3613 12.0664 74.3496 11.9902 74.3379 11.9199C74.3262 11.8379 74.3203 11.7793 74.3203 11.7441C74.2969 11.6855 74.2617 11.6035 74.2148 11.498C74.1797 11.3926 74.1621 11.3281 74.1621 11.3047C74.1152 11.0352 74.0742 10.7598 74.0391 10.4785C74.0156 10.1973 73.9629 9.92773 73.8809 9.66992C73.6699 9.01367 73.3887 8.35742 73.0371 7.70117C72.6973 7.04492 72.3047 6.45312 71.8594 5.92578C71.8477 5.90234 71.8008 5.85547 71.7188 5.78516C71.6484 5.70312 71.5664 5.61523 71.4727 5.52148C71.3906 5.42773 71.3086 5.33984 71.2266 5.25781C71.1445 5.17578 71.0977 5.11719 71.0859 5.08203C71.0625 5.07031 71.0273 5.03516 70.9805 4.97656C70.9453 4.90625 70.9043 4.83594 70.8574 4.76562C70.8223 4.68359 70.7812 4.61328 70.7344 4.55469C70.6992 4.48438 70.6758 4.44336 70.6641 4.43164C70.6406 4.4082 70.5703 4.36719 70.4531 4.30859C70.3359 4.23828 70.2656 4.19141 70.2422 4.16797C69.9727 3.95703 69.6855 3.76953 69.3809 3.60547C69.0879 3.42969 68.8066 3.25391 68.5371 3.07812C68.4785 3.05469 68.4141 3.03125 68.3438 3.00781C68.2734 2.98438 68.2383 2.9668 68.2383 2.95508C68.2148 2.94336 68.1562 2.92578 68.0625 2.90234C67.9805 2.87891 67.8867 2.85547 67.7812 2.83203C67.6758 2.79688 67.5762 2.76172 67.4824 2.72656C67.4004 2.69141 67.3477 2.66211 67.3242 2.63867C67.3008 2.63867 67.2598 2.62109 67.2012 2.58594C67.1543 2.55078 67.0957 2.51562 67.0254 2.48047C66.9668 2.43359 66.9082 2.39258 66.8496 2.35742C66.8027 2.31055 66.7793 2.28711 66.7793 2.28711C66.4395 2.06445 66.082 1.92383 65.707 1.86523C65.332 1.79492 64.957 1.75977 64.582 1.75977H63.9141C63.668 1.71289 63.4219 1.6543 63.1758 1.58398C62.9414 1.50195 62.6895 1.46094 62.4199 1.46094C62.2793 1.46094 62.1328 1.50195 61.9805 1.58398C61.8398 1.6543 61.7051 1.74805 61.5762 1.86523C61.459 1.98242 61.3594 2.11133 61.2773 2.25195C61.1953 2.39258 61.1426 2.52148 61.1191 2.63867C61.0957 2.7207 61.0664 2.83789 61.0312 2.99023C61.0078 3.13086 60.9844 3.27734 60.9609 3.42969C60.9375 3.57031 60.9141 3.69922 60.8906 3.81641C60.8789 3.93359 60.873 4.00977 60.873 4.04492C60.8496 4.10352 60.8262 4.23828 60.8027 4.44922C60.791 4.64844 60.7734 4.87109 60.75 5.11719C60.7383 5.35156 60.7266 5.57422 60.7148 5.78516C60.7031 5.99609 60.6973 6.125 60.6973 6.17188C60.6973 6.21875 60.6797 6.31836 60.6445 6.4707C60.6094 6.61133 60.5859 6.70508 60.5742 6.75195V7.20898V7.66602C60.5859 7.68945 60.6094 7.77734 60.6445 7.92969C60.6797 8.07031 60.6973 8.15234 60.6973 8.17578C60.7207 8.32812 60.7441 8.54492 60.7676 8.82617C60.8027 9.10742 60.832 9.39453 60.8555 9.6875C60.8906 9.96875 60.9141 10.2266 60.9258 10.4609C60.9492 10.6953 60.9609 10.8359 60.9609 10.8828C60.9609 10.9297 60.9551 11 60.9434 11.0938C60.9434 11.1875 60.9375 11.2871 60.9258 11.3926C60.9141 11.4863 60.9023 11.5742 60.8906 11.6562C60.8906 11.7383 60.8848 11.7969 60.873 11.832V18.4062C60.873 18.4297 60.8613 18.4883 60.8379 18.582C60.8262 18.6758 60.8086 18.7812 60.7852 18.8984C60.7734 19.0156 60.7559 19.1328 60.7324 19.25C60.709 19.3555 60.6973 19.4375 60.6973 19.4961C60.6973 19.5195 60.6738 19.5898 60.627 19.707C60.5918 19.8125 60.5742 19.8711 60.5742 19.8828ZM53.8418 26.2109C53.6426 26.1055 53.502 26.0234 53.4199 25.9648C53.3379 25.8945 53.2969 25.7539 53.2969 25.543C53.2969 25.4375 53.332 25.3379 53.4023 25.2441C53.4844 25.1504 53.5781 25.0684 53.6836 24.998C53.7891 24.9277 53.9004 24.875 54.0176 24.8398C54.1465 24.793 54.2637 24.7637 54.3691 24.752C54.627 24.7285 54.9258 24.6992 55.2656 24.6641C55.6055 24.6172 55.9336 24.5938 56.25 24.5938C56.3555 24.5938 56.4551 24.5996 56.5488 24.6113C56.6426 24.623 56.7246 24.6289 56.7949 24.6289C56.9355 24.5352 57.0469 24.4121 57.1289 24.2598C57.2227 24.0957 57.293 23.9434 57.3398 23.8027V22.3262V20.8672C57.3281 20.5156 57.2812 20.1641 57.1992 19.8125C57.1172 19.4609 57.0762 19.1094 57.0762 18.7578C57.0762 18.6289 57.082 18.5293 57.0938 18.459C57.1055 18.3887 57.1406 18.2891 57.1992 18.1602V14.416C57.1406 14.1465 57.082 13.877 57.0234 13.6074C56.9766 13.3379 56.9531 13.0684 56.9531 12.7988C56.9531 12.4004 56.9648 12.0078 56.9883 11.6211C57.0234 11.2344 57.0938 10.8594 57.1992 10.4961V4.43164C57.1406 4.25586 57.0996 4.05664 57.0762 3.83398C57.0527 3.59961 57.041 3.36523 57.041 3.13086C57.041 3.00195 57.041 2.87891 57.041 2.76172C57.041 2.63281 57.0527 2.52148 57.0762 2.42773C57.041 2.4043 56.9766 2.38086 56.8828 2.35742C56.8008 2.32227 56.707 2.29297 56.6016 2.26953C56.4961 2.23438 56.3965 2.21094 56.3027 2.19922C56.2207 2.17578 56.1621 2.16406 56.127 2.16406C56.1035 2.16406 56.0566 2.1582 55.9863 2.14648C55.9277 2.13477 55.8516 2.12891 55.7578 2.12891C55.5586 2.12891 55.3535 2.13477 55.1426 2.14648C54.9434 2.1582 54.8262 2.16406 54.791 2.16406C54.6855 2.15234 54.5625 2.13477 54.4219 2.11133C54.2812 2.07617 54.1406 2.0293 54 1.9707C53.8711 1.91211 53.7598 1.8418 53.666 1.75977C53.584 1.66602 53.543 1.55469 53.543 1.42578C53.543 1.30859 53.5723 1.20898 53.6309 1.12695C53.6895 1.04492 53.7598 0.974609 53.8418 0.916016C53.9355 0.857422 54.0293 0.810547 54.123 0.775391C54.2168 0.740234 54.2988 0.705078 54.3691 0.669922C54.5098 0.658203 54.6738 0.652344 54.8613 0.652344C55.0488 0.640625 55.2422 0.634766 55.4414 0.634766C55.6406 0.634766 55.834 0.634766 56.0215 0.634766C56.209 0.634766 56.3672 0.634766 56.4961 0.634766C56.918 0.634766 57.3574 0.640625 57.8145 0.652344C58.2715 0.664063 58.6641 0.710937 58.9922 0.792969C59.1562 0.652344 59.3613 0.576172 59.6074 0.564453C59.8535 0.552734 60.082 0.535156 60.293 0.511719C60.3398 0.511719 60.4219 0.517578 60.5391 0.529297C60.668 0.529297 60.8145 0.529297 60.9785 0.529297C61.1426 0.529297 61.3184 0.535156 61.5059 0.546875C61.6934 0.546875 61.8691 0.546875 62.0332 0.546875C62.1973 0.546875 62.3379 0.541016 62.4551 0.529297C62.584 0.517578 62.666 0.511719 62.7012 0.511719C62.7363 0.511719 62.8184 0.5 62.9473 0.476562C63.0879 0.453125 63.2344 0.423828 63.3867 0.388672C63.5391 0.353516 63.6797 0.324219 63.8086 0.300781C63.9492 0.277344 64.043 0.265625 64.0898 0.265625C64.125 0.265625 64.2129 0.271484 64.3535 0.283203C64.4941 0.283203 64.582 0.3125 64.6172 0.371094H65.918C66.2109 0.371094 66.4922 0.376953 66.7617 0.388672C67.0312 0.388672 67.2188 0.400391 67.3242 0.423828C67.3594 0.423828 67.4238 0.429687 67.5176 0.441406C67.6113 0.441406 67.7109 0.447266 67.8164 0.458984C67.9219 0.470703 68.0273 0.482422 68.1328 0.494141C68.2383 0.505859 68.3145 0.511719 68.3613 0.511719C69.0996 0.652344 69.8203 0.810547 70.5234 0.986328C71.2383 1.16211 71.9121 1.44922 72.5449 1.84766C72.5684 1.87109 72.6152 1.91797 72.6855 1.98828C72.7559 2.05859 72.8262 2.13477 72.8965 2.2168C72.9785 2.28711 73.0488 2.35742 73.1074 2.42773C73.1777 2.48633 73.2246 2.51562 73.248 2.51562C73.3535 2.62109 73.459 2.69727 73.5645 2.74414C73.6699 2.79102 73.7754 2.83203 73.8809 2.86719C73.998 2.89062 74.1152 2.91406 74.2324 2.9375C74.3496 2.96094 74.4609 3.00781 74.5664 3.07812C74.9297 3.32422 75.2988 3.66406 75.6738 4.09766C76.0488 4.53125 76.3945 5.00586 76.7109 5.52148C77.0273 6.02539 77.3027 6.54102 77.5371 7.06836C77.7832 7.5957 77.9531 8.07031 78.0469 8.49219C78.0586 8.52734 78.0762 8.62109 78.0996 8.77344C78.1348 8.92578 78.1641 9.0957 78.1875 9.2832C78.2227 9.45898 78.252 9.62891 78.2754 9.79297C78.2988 9.94531 78.3164 10.0449 78.3281 10.0918C78.3398 10.1152 78.3574 10.1562 78.3809 10.2148C78.4043 10.2734 78.4277 10.3438 78.4512 10.4258C78.4863 10.4961 78.5156 10.5664 78.5391 10.6367C78.5625 10.6953 78.5742 10.7363 78.5742 10.7598C78.5977 10.7832 78.6094 10.8828 78.6094 11.0586C78.6094 11.2344 78.6094 11.3691 78.6094 11.4629C78.6094 12.5996 78.5273 13.707 78.3633 14.7852C78.1992 15.8633 77.9648 16.9531 77.6602 18.0547C77.5195 18.5469 77.3262 19.0156 77.0801 19.4609C76.834 19.8945 76.5586 20.3105 76.2539 20.709C75.9492 21.1074 75.6152 21.4883 75.252 21.8516C74.9004 22.2031 74.5371 22.543 74.1621 22.8711C74.1387 22.8828 74.0859 22.9297 74.0039 23.0117C73.9336 23.0938 73.8516 23.1816 73.7578 23.2754C73.6641 23.3691 73.5762 23.457 73.4941 23.5391C73.4121 23.6094 73.3594 23.6504 73.3359 23.6621C73.3125 23.6973 73.2363 23.7441 73.1074 23.8027C72.9785 23.8496 72.8379 23.9023 72.6855 23.9609C72.5449 24.0195 72.4043 24.0723 72.2637 24.1191C72.123 24.166 72.0352 24.1953 72 24.207C71.5547 24.418 71.1094 24.6406 70.6641 24.875C70.2305 25.0977 69.7852 25.291 69.3281 25.4551C69.1875 25.502 69.0527 25.5371 68.9238 25.5605C68.7949 25.5723 68.666 25.584 68.5371 25.5957C68.4082 25.6074 68.2734 25.6191 68.1328 25.6309C67.9922 25.6426 67.8457 25.666 67.6934 25.7012C67.6699 25.7012 67.623 25.7246 67.5527 25.7715C67.4941 25.8066 67.459 25.8301 67.4473 25.8418C67.4004 25.8652 67.3359 25.8945 67.2539 25.9297C67.1836 25.9531 67.1133 25.9766 67.043 26C66.9727 26.0234 66.9082 26.041 66.8496 26.0527C66.8027 26.0762 66.7793 26.0879 66.7793 26.0879H65.918C65.8945 26.0879 65.8359 26.0938 65.7422 26.1055C65.6602 26.1172 65.5664 26.1289 65.4609 26.1406C65.3672 26.1641 65.2734 26.1816 65.1797 26.1934C65.0859 26.2051 65.0273 26.2109 65.0039 26.2109C64.9922 26.2109 64.9219 26.2168 64.793 26.2285C64.6641 26.2402 64.5762 26.2461 64.5293 26.2461C63.7324 26.2461 62.9355 26.2168 62.1387 26.1582C61.3418 26.1113 60.5566 26.0879 59.7832 26.0879H58.9922C58.9453 26.0879 58.8457 26.1055 58.6934 26.1406C58.541 26.1875 58.459 26.2109 58.4473 26.2109H58.377H58.2539C58.2188 26.2109 58.125 26.2051 57.9727 26.1934C57.8203 26.1816 57.6504 26.1641 57.4629 26.1406C57.2871 26.1289 57.1172 26.1172 56.9531 26.1055C56.8008 26.0938 56.7012 26.0879 56.6543 26.0879H56.6191H56.5488C56.4199 26.123 56.2441 26.1816 56.0215 26.2637C55.7988 26.3457 55.6113 26.3867 55.459 26.3867H55.3008C55.2422 26.3867 55.1426 26.375 55.002 26.3516C54.873 26.3398 54.7266 26.3223 54.5625 26.2988C54.4102 26.2871 54.2637 26.2695 54.123 26.2461C53.9941 26.2344 53.9004 26.2227 53.8418 26.2109ZM81.9844 12.623C81.9961 12.5293 82.0137 12.3711 82.0371 12.1484C82.0605 11.9141 82.0781 11.668 82.0898 11.4102C82.125 11.1758 82.1543 10.959 82.1777 10.7598C82.2129 10.5605 82.248 10.3672 82.2832 10.1797C82.3066 10.168 82.3184 10.1504 82.3184 10.127C82.3301 10.1035 82.3477 10.0801 82.3711 10.0566C82.3828 10.0332 82.4062 9.96875 82.4414 9.86328C82.4766 9.74609 82.5117 9.62305 82.5469 9.49414C82.5938 9.35352 82.6348 9.23047 82.6699 9.125C82.7168 9.00781 82.752 8.9375 82.7754 8.91406C82.8809 8.64453 82.9922 8.41016 83.1094 8.21094C83.2266 8.01172 83.3379 7.81836 83.4434 7.63086C83.502 7.53711 83.5605 7.44336 83.6191 7.34961C83.6777 7.25586 83.748 7.14453 83.8301 7.01562C83.9121 6.92188 83.9824 6.77539 84.041 6.57617C84.0996 6.41211 84.1758 6.25391 84.2695 6.10156C84.3633 5.9375 84.4922 5.79102 84.6562 5.66211C84.8438 5.55664 84.9785 5.44531 85.0605 5.32812C85.1426 5.21094 85.2305 5.08789 85.3242 4.95898C85.3711 4.90039 85.4355 4.82422 85.5176 4.73047C85.6113 4.63672 85.7812 4.46094 86.0273 4.20312C86.0977 4.12109 86.168 4.03906 86.2383 3.95703C86.3203 3.86328 86.4023 3.79297 86.4844 3.74609C86.5781 3.67578 86.6484 3.62891 86.6953 3.60547C86.7422 3.58203 86.7832 3.55859 86.8184 3.53516C86.8652 3.5 86.9121 3.45898 86.959 3.41211C87.0059 3.36523 87.0645 3.30664 87.1348 3.23633C87.2051 3.16602 87.293 3.07227 87.3984 2.95508C87.4453 2.89648 87.5449 2.83203 87.6973 2.76172C87.8496 2.69141 88.1133 2.5625 88.4883 2.375C88.4648 2.35156 88.5176 2.30469 88.6465 2.23438C88.7754 2.15234 88.9043 2.06445 89.0332 1.9707C89.1738 1.90039 89.3027 1.8418 89.4199 1.79492C89.5488 1.73633 89.6836 1.69531 89.8242 1.67188C89.8359 1.67188 89.8711 1.66602 89.9297 1.6543C89.9883 1.63086 90.0527 1.60742 90.123 1.58398C90.1934 1.54883 90.2637 1.51367 90.334 1.47852C90.4043 1.44336 90.457 1.4082 90.4922 1.37305C90.5156 1.37305 90.5332 1.37305 90.5449 1.37305C90.5684 1.36133 90.6445 1.33789 90.7734 1.30273H91.1602L91.7402 1.21484C92.2441 1.13281 92.7246 1.0625 93.1816 1.00391C93.6504 0.945313 94.1309 0.916016 94.623 0.916016H94.8164C95.0742 0.916016 95.3613 0.921875 95.6777 0.933594C95.9941 0.945313 96.2754 0.986328 96.5215 1.05664C96.5215 1.05664 96.5449 1.0625 96.5918 1.07422C96.6387 1.08594 96.6855 1.10352 96.7324 1.12695C96.791 1.13867 96.8438 1.15625 96.8906 1.17969C96.9492 1.19141 96.9844 1.20312 96.9961 1.21484C97.0195 1.22656 97.084 1.24414 97.1895 1.26758C97.2949 1.2793 97.4121 1.29688 97.541 1.32031C97.6699 1.33203 97.7871 1.34961 97.8926 1.37305C98.0098 1.39648 98.0859 1.41406 98.1211 1.42578C98.1445 1.44922 98.1914 1.47266 98.2617 1.49609C98.3438 1.51953 98.4492 1.56055 98.5781 1.61914C98.6719 1.66602 98.7598 1.70703 98.8418 1.74219C98.9238 1.77734 98.9766 1.80664 99 1.83008C99.0352 1.8418 99.0645 1.84766 99.0879 1.84766C99.123 1.84766 99.1641 1.85938 99.2109 1.88281C99.2695 1.90625 99.3164 1.92383 99.3516 1.93555C99.3867 1.94727 99.416 1.95312 99.4395 1.95312C99.5098 2 99.6328 2.07031 99.8086 2.16406C99.9961 2.24609 100.189 2.33984 100.389 2.44531C100.588 2.55078 100.781 2.65039 100.969 2.74414C101.168 2.83789 101.314 2.9082 101.408 2.95508C101.432 2.9668 101.461 2.97852 101.496 2.99023C101.543 3.00195 101.596 3.00781 101.654 3.00781C101.748 3.00781 101.818 2.97852 101.865 2.91992C101.912 2.84961 101.953 2.7793 101.988 2.70898C102.047 2.54492 102.111 2.39844 102.182 2.26953C102.252 2.14063 102.328 2.01172 102.41 1.88281C102.492 1.78906 102.551 1.73047 102.586 1.70703C102.633 1.68359 102.738 1.67188 102.902 1.67188C103.09 1.67188 103.236 1.74219 103.342 1.88281C103.459 2.02344 103.547 2.19336 103.605 2.39258C103.664 2.58008 103.699 2.7793 103.711 2.99023C103.734 3.20117 103.746 3.37109 103.746 3.5C103.746 3.79297 103.74 4.0918 103.729 4.39648C103.717 4.68945 103.693 4.98828 103.658 5.29297C103.623 5.80859 103.605 6.35352 103.605 6.92773V7.36719C103.582 7.41406 103.553 7.47266 103.518 7.54297C103.494 7.60156 103.43 7.67187 103.324 7.75391C103.242 7.83594 103.172 7.90625 103.113 7.96484C103.055 8.01172 102.961 8.03516 102.832 8.03516C102.715 8.03516 102.574 8.00586 102.41 7.94727C102.246 7.87695 102.135 7.77148 102.076 7.63086C101.877 7.20898 101.684 6.81641 101.496 6.45312C101.309 6.07813 101.104 5.7207 100.881 5.38086C100.67 5.04102 100.43 4.71289 100.16 4.39648C99.9023 4.06836 99.5977 3.74023 99.2461 3.41211C98.8945 3.11914 98.5078 2.89648 98.0859 2.74414C97.6641 2.58008 97.2305 2.43359 96.7852 2.30469C96.7266 2.28125 96.668 2.25195 96.6094 2.2168C96.3398 2.1582 96.0938 2.12305 95.8711 2.11133C95.6602 2.09961 95.4199 2.09375 95.1504 2.09375C94.5527 2.09375 93.9668 2.22266 93.3926 2.48047C92.8184 2.72656 92.2559 2.99609 91.7051 3.28906C91.6465 3.35938 91.5527 3.42969 91.4238 3.5C91.3066 3.55859 91.1777 3.61719 91.0371 3.67578C90.9082 3.75781 90.8027 3.82227 90.7207 3.86914C90.6387 3.91602 90.5801 3.95117 90.5449 3.97461L90 4.50195C89.9297 4.60742 89.8535 4.70117 89.7715 4.7832C89.6895 4.85352 89.6367 4.90039 89.6133 4.92383C89.5781 4.92383 89.5488 4.93555 89.5254 4.95898C89.5137 4.98242 89.4785 5 89.4199 5.01172C89.3496 5.05859 89.3086 5.08789 89.2969 5.09961C89.2852 5.09961 89.2676 5.09961 89.2441 5.09961C89.1152 5.24023 88.9805 5.41602 88.8398 5.62695C88.6992 5.82617 88.582 6.01953 88.4883 6.20703C88.4766 6.21875 88.4121 6.33008 88.2949 6.54102C88.2246 6.64648 88.1484 6.76953 88.0664 6.91016C87.9844 7.05078 87.9023 7.19141 87.8203 7.33203C87.7383 7.46094 87.6562 7.58984 87.5742 7.71875C87.5039 7.83594 87.4512 7.92969 87.416 8C87.1699 8.45703 86.9707 8.97266 86.8184 9.54688C86.666 10.1211 86.543 10.707 86.4492 11.3047C86.3672 11.9023 86.3086 12.4941 86.2734 13.0801C86.25 13.666 86.2383 14.1992 86.2383 14.6797C86.2383 15.3242 86.2676 15.957 86.3262 16.5781C86.3965 17.1992 86.5371 17.8262 86.748 18.459C86.7598 18.4707 86.7832 18.5059 86.8184 18.5645C86.8535 18.623 86.8828 18.6934 86.9062 18.7754C86.9414 18.8457 86.9707 18.916 86.9941 18.9863C87.0293 19.0449 87.0469 19.0801 87.0469 19.0918C87.1055 19.2559 87.1641 19.4141 87.2227 19.5664C87.2812 19.707 87.3281 19.8418 87.3633 19.9707C87.4219 20.1582 87.4863 20.3457 87.5566 20.5332C87.6387 20.709 87.7266 20.8789 87.8203 21.043C88.0195 21.4297 88.2949 21.8164 88.6465 22.2031C88.998 22.5781 89.3848 22.9297 89.8066 23.2578C90.2285 23.5859 90.6621 23.873 91.1074 24.1191C91.5645 24.3652 91.998 24.5352 92.4082 24.6289C92.4551 24.6289 92.543 24.6348 92.6719 24.6465C92.8008 24.6582 92.9355 24.6641 93.0762 24.6641H93.6914C93.7969 24.6641 93.9551 24.6582 94.166 24.6465C94.3887 24.6348 94.582 24.6289 94.7461 24.6289H95.0273C95.0508 24.6289 95.127 24.6113 95.2559 24.5762C95.3848 24.5293 95.5312 24.4766 95.6953 24.418C95.8594 24.3594 96.0234 24.3008 96.1875 24.2422C96.3633 24.1719 96.5039 24.1191 96.6094 24.084C96.7852 24.0137 96.9434 23.9141 97.084 23.7852C97.2363 23.6562 97.3711 23.5156 97.4883 23.3633C97.6055 23.1992 97.6992 23.0234 97.7695 22.8359C97.8398 22.6484 97.875 22.4668 97.875 22.291V19.1621C97.875 19.1504 97.8809 19.0977 97.8926 19.0039C97.9043 18.8984 97.916 18.7754 97.9277 18.6348C97.9512 18.4941 97.9688 18.3477 97.9805 18.1953C98.0039 18.043 98.0215 17.8965 98.0332 17.7559C98.0566 17.4863 98.0742 17.2402 98.0859 17.0176C98.1094 16.7949 98.1211 16.6543 98.1211 16.5957V15.6289C98.1211 15.5234 98.1094 15.418 98.0859 15.3125C98.0742 15.1953 98.0566 15.1074 98.0332 15.0488C97.9863 15.0254 97.8633 14.9668 97.6641 14.873C97.4766 14.7676 97.3066 14.6855 97.1543 14.627C97.1191 14.6035 97.084 14.5918 97.0488 14.5918C97.0254 14.5801 96.9961 14.5625 96.9609 14.5391C96.8672 14.5156 96.7559 14.498 96.627 14.4863C96.5098 14.4746 96.3691 14.4629 96.2051 14.4512C96.0293 14.4395 95.8477 14.4219 95.6602 14.3984C95.4844 14.375 95.3203 14.3457 95.168 14.3105C95.0156 14.2637 94.8926 14.2051 94.7988 14.1348C94.7051 14.0527 94.6582 13.9414 94.6582 13.8008C94.6582 13.7773 94.6641 13.7539 94.6758 13.7305C94.6875 13.707 94.6934 13.6836 94.6934 13.6602L94.7812 13.4141C94.8047 13.3672 94.8574 13.3086 94.9395 13.2383C95.0215 13.1562 95.0801 13.1035 95.1152 13.0801H97.6641C97.6758 13.0801 97.7227 13.0742 97.8047 13.0625C97.8867 13.0508 97.9688 13.0391 98.0508 13.0273C98.1445 13.0039 98.2266 12.9863 98.2969 12.9746C98.3789 12.9629 98.4316 12.957 98.4551 12.957H98.6133C98.6367 12.957 98.707 12.9805 98.8242 13.0273C98.9531 13.0625 99.0527 13.0801 99.123 13.0801H100.195L100.705 13.1328C100.893 13.1562 101.062 13.1797 101.215 13.2031C101.379 13.2148 101.484 13.2207 101.531 13.2207C101.637 13.2441 101.83 13.2559 102.111 13.2559C102.393 13.2559 102.686 13.2559 102.99 13.2559C103.307 13.2559 103.6 13.2559 103.869 13.2559C104.15 13.2559 104.344 13.2441 104.449 13.2207C104.543 13.2324 104.648 13.2676 104.766 13.3262C104.883 13.373 104.988 13.4375 105.082 13.5195C105.188 13.5898 105.275 13.6777 105.346 13.7832C105.416 13.8887 105.451 14 105.451 14.1172L105.275 14.3281C105.229 14.3398 105.152 14.375 105.047 14.4336C104.953 14.4805 104.895 14.5156 104.871 14.5391C104.801 14.5625 104.678 14.5801 104.502 14.5918C104.326 14.5918 104.145 14.6035 103.957 14.627C103.805 14.6504 103.658 14.668 103.518 14.6797C103.389 14.6797 103.295 14.6797 103.236 14.6797C102.932 14.7148 102.686 14.7676 102.498 14.8379C102.322 14.9082 102.205 15.1016 102.146 15.418C102.029 15.9805 101.959 16.5488 101.936 17.123C101.924 17.6973 101.918 18.2656 101.918 18.8281C101.918 19.0391 101.918 19.2617 101.918 19.4961C101.918 19.7305 101.912 19.9648 101.9 20.1992C101.877 20.2461 101.854 20.3633 101.83 20.5508C101.818 20.7266 101.807 20.9199 101.795 21.1309C101.783 21.3418 101.771 21.541 101.76 21.7285C101.748 21.916 101.742 22.0332 101.742 22.0801C101.742 22.1387 101.742 22.2207 101.742 22.3262C101.754 22.4199 101.771 22.5195 101.795 22.625C101.83 22.7188 101.877 22.8066 101.936 22.8887C101.994 22.959 102.07 22.9941 102.164 22.9941C102.258 22.9941 102.346 22.9824 102.428 22.959C102.521 22.9238 102.615 22.8945 102.709 22.8711C102.826 22.8477 102.932 22.8242 103.025 22.8008C103.131 22.7656 103.248 22.748 103.377 22.748C103.564 22.748 103.67 22.7949 103.693 22.8887C103.729 22.9824 103.746 23.0996 103.746 23.2402C103.746 23.3809 103.699 23.5156 103.605 23.6445C103.523 23.7734 103.418 23.8965 103.289 24.0137C103.16 24.1309 103.02 24.2305 102.867 24.3125C102.727 24.3945 102.598 24.459 102.48 24.5059C102.457 24.5059 102.428 24.5117 102.393 24.5234C102.357 24.5352 102.293 24.5527 102.199 24.5762C102.117 24.5879 102.041 24.6055 101.971 24.6289C101.9 24.6523 101.854 24.6641 101.83 24.6641C101.725 24.7109 101.607 24.7578 101.479 24.8047C101.361 24.8398 101.238 24.8809 101.109 24.9277C101.004 24.9629 100.898 25.0098 100.793 25.0684C100.688 25.1152 100.588 25.1504 100.494 25.1738C100.447 25.1738 100.359 25.1914 100.23 25.2266C100.102 25.25 100.025 25.2734 100.002 25.2969C98.9941 25.4961 97.9629 25.6777 96.9082 25.8418C95.8652 26.0059 94.793 26.0879 93.6914 26.0879C93.6562 26.0762 93.6211 26.0586 93.5859 26.0352C93.5625 26.0117 93.5332 26 93.498 26C93.4746 25.9883 93.457 25.9707 93.4453 25.9473C93.3984 25.9473 93.3223 25.9414 93.2168 25.9297C93.123 25.918 93.0234 25.9121 92.918 25.9121C92.8008 25.8887 92.6836 25.8711 92.5664 25.8594C92.4609 25.8477 92.3965 25.8418 92.373 25.8418C92.2441 25.8301 92.0625 25.8066 91.8281 25.7715C91.6055 25.7246 91.3711 25.6719 91.125 25.6133C90.8672 25.5781 90.6328 25.543 90.4219 25.5078C90.2109 25.4727 90.0938 25.4434 90.0703 25.4199C89.8359 25.373 89.5898 25.2793 89.332 25.1387C89.0859 24.998 88.8457 24.8574 88.6113 24.7168C88.5059 24.6582 88.3945 24.5996 88.2773 24.541C88.1602 24.4824 88.0547 24.4121 87.9609 24.3301C87.6562 24.2246 87.3867 24.1074 87.1523 23.9785C86.918 23.8496 86.6543 23.6504 86.3613 23.3809C86.291 23.334 86.1914 23.2461 86.0625 23.1172C85.9336 22.9883 85.793 22.8477 85.6406 22.6953C85.4883 22.543 85.3359 22.3906 85.1836 22.2383C85.0312 22.0742 84.8965 21.9277 84.7793 21.7988L84.498 21.5527C84.5332 21.5527 84.498 21.5 84.3926 21.3945C84.2871 21.2891 84.2109 21.1836 84.1641 21.0781C84.1406 21.0195 84.123 20.9727 84.1113 20.9375C84.1113 20.8906 84.0996 20.8555 84.0762 20.832C84.0762 20.8086 84.0469 20.7324 83.9883 20.6035C83.9297 20.4746 83.8887 20.3984 83.8652 20.375C83.8418 20.3516 83.8008 20.3164 83.7422 20.2695C83.6836 20.2109 83.625 20.1465 83.5664 20.0762C83.4844 19.9824 83.4199 19.9004 83.373 19.8301C83.3379 19.7598 83.3086 19.707 83.2852 19.6719C82.8281 18.7461 82.4941 17.8027 82.2832 16.8418C82.084 15.8809 81.9844 14.8789 81.9844 13.8359V12.623ZM123.1 25.9648C123.053 25.9648 122.982 25.9707 122.889 25.9824C122.807 25.9824 122.719 25.9824 122.625 25.9824C122.543 25.9824 122.467 25.9883 122.396 26C122.326 26 122.291 26 122.291 26L121.869 26.1582L119.707 26.0352H115.102C114.926 25.9766 114.773 25.9355 114.645 25.9121C114.527 25.8887 114.387 25.877 114.223 25.877C114.094 25.877 113.994 25.8828 113.924 25.8945C113.854 25.9062 113.76 25.9414 113.643 26C113.525 26 113.326 25.9941 113.045 25.9824C112.775 25.9707 112.488 25.9648 112.184 25.9648C111.879 25.9648 111.586 25.9707 111.305 25.9824C111.035 25.9941 110.854 26 110.76 26C110.725 26 110.66 26.0059 110.566 26.0176C110.484 26.0293 110.391 26.0352 110.285 26.0352C110.191 26.0469 110.098 26.0586 110.004 26.0703C109.922 26.082 109.869 26.0879 109.846 26.0879C109.811 26.0996 109.77 26.1055 109.723 26.1055C109.688 26.1172 109.652 26.123 109.617 26.123C109.594 26.123 109.57 26.123 109.547 26.123C109.23 26.123 108.99 26.0879 108.826 26.0176C108.674 25.959 108.539 25.7715 108.422 25.4551C108.375 25.4551 108.352 25.4434 108.352 25.4199C108.34 25.4082 108.34 25.3906 108.352 25.3672C108.352 25.2734 108.381 25.1738 108.439 25.0684C108.51 24.9512 108.592 24.8457 108.686 24.752C108.791 24.6582 108.896 24.582 109.002 24.5234C109.119 24.4531 109.23 24.418 109.336 24.418H111.006C111.029 24.418 111.105 24.3535 111.234 24.2246C111.363 24.084 111.469 23.9785 111.551 23.9082C111.574 23.8848 111.598 23.8379 111.621 23.7676C111.656 23.6855 111.674 23.627 111.674 23.5918C111.814 22.9004 111.896 22.2148 111.92 21.5352C111.943 20.8555 111.955 20.1465 111.955 19.4082C111.955 19.3496 111.955 19.2207 111.955 19.0215C111.967 18.8105 111.973 18.5645 111.973 18.2832C111.984 18.002 111.996 17.709 112.008 17.4043C112.02 17.0879 112.025 16.7891 112.025 16.5078C112.037 16.2266 112.043 15.9863 112.043 15.7871C112.055 15.5762 112.061 15.4355 112.061 15.3652V14.416C112.061 13.4785 112.043 12.5527 112.008 11.6387C111.973 10.7246 111.955 9.81641 111.955 8.91406V8.79102C111.955 8.75586 111.961 8.66797 111.973 8.52734C111.984 8.375 111.996 8.2168 112.008 8.05273C112.02 7.88867 112.031 7.73633 112.043 7.5957C112.055 7.45508 112.061 7.36719 112.061 7.33203C112.072 7.22656 112.084 7.04492 112.096 6.78711C112.107 6.51758 112.119 6.23633 112.131 5.94336C112.143 5.63867 112.154 5.35742 112.166 5.09961C112.178 4.8418 112.184 4.66016 112.184 4.55469C112.125 4.37891 112.09 4.19727 112.078 4.00977C112.066 3.81055 112.049 3.62305 112.025 3.44727C112.002 3.25977 111.955 3.08398 111.885 2.91992C111.814 2.75586 111.703 2.61523 111.551 2.49805C111.48 2.48633 111.357 2.47461 111.182 2.46289C111.006 2.45117 110.818 2.44531 110.619 2.44531C110.432 2.43359 110.25 2.42188 110.074 2.41016C109.898 2.39844 109.781 2.38672 109.723 2.375C109.535 2.35156 109.33 2.32227 109.107 2.28711C108.885 2.24023 108.68 2.17578 108.492 2.09375C108.305 2 108.146 1.87695 108.018 1.72461C107.9 1.57227 107.842 1.37305 107.842 1.12695L107.912 1.0918C107.936 1.08008 107.953 1.06836 107.965 1.05664C107.977 1.04492 107.994 1.03906 108.018 1.03906C108.299 0.875 108.551 0.769531 108.773 0.722656C108.996 0.664063 109.283 0.634766 109.635 0.634766H109.723C109.758 0.669922 109.793 0.699219 109.828 0.722656C109.898 0.769531 109.945 0.792969 109.969 0.792969C110.555 0.839844 111.141 0.875 111.727 0.898438C112.312 0.910156 112.904 0.916016 113.502 0.916016C113.994 0.916016 114.475 0.910156 114.943 0.898438C115.412 0.886719 115.875 0.880859 116.332 0.880859H120.217C120.264 0.880859 120.34 0.875 120.445 0.863281C120.551 0.851562 120.662 0.845703 120.779 0.845703C120.908 0.833984 121.031 0.822266 121.148 0.810547C121.266 0.798828 121.354 0.792969 121.412 0.792969H121.535H121.641C121.676 0.792969 121.758 0.798828 121.887 0.810547C122.016 0.822266 122.156 0.833984 122.309 0.845703C122.461 0.845703 122.602 0.851562 122.73 0.863281C122.871 0.875 122.959 0.880859 122.994 0.880859H125.086C125.18 0.892578 125.314 0.904297 125.49 0.916016C125.678 0.927734 125.859 0.939453 126.035 0.951172C126.223 0.962891 126.387 0.980469 126.527 1.00391C126.668 1.01563 126.744 1.02734 126.756 1.03906C126.768 1.03906 126.814 1.05664 126.896 1.0918C126.979 1.12695 127.066 1.17383 127.16 1.23242C127.266 1.2793 127.365 1.33203 127.459 1.39062C127.564 1.44922 127.646 1.50195 127.705 1.54883C127.822 1.61914 127.916 1.78906 127.986 2.05859C128.068 2.31641 128.133 2.60352 128.18 2.91992C128.227 3.23633 128.262 3.54688 128.285 3.85156C128.32 4.15625 128.35 4.39063 128.373 4.55469C128.373 4.61328 128.379 4.71875 128.391 4.87109C128.414 5.01172 128.432 5.16406 128.443 5.32812C128.455 5.49219 128.467 5.65039 128.479 5.80273C128.49 5.95508 128.496 6.06055 128.496 6.11914V6.59375V7.08594C128.438 7.19141 128.361 7.26172 128.268 7.29688C128.174 7.32031 128.074 7.33203 127.969 7.33203H127.846C127.717 7.25 127.623 7.16797 127.564 7.08594C127.506 7.00391 127.459 6.92188 127.424 6.83984C127.389 6.74609 127.354 6.65234 127.318 6.55859C127.295 6.46484 127.248 6.36523 127.178 6.25977C127.178 6.24805 127.154 6.22461 127.107 6.18945C127.072 6.14258 127.031 6.0957 126.984 6.04883C126.938 6.00195 126.891 5.96094 126.844 5.92578C126.797 5.87891 126.768 5.84961 126.756 5.83789C126.592 5.60352 126.428 5.33984 126.264 5.04688C126.111 4.74219 125.93 4.46094 125.719 4.20312C125.707 4.17969 125.666 4.13867 125.596 4.08008C125.537 4.02148 125.496 3.96875 125.473 3.92188C125.461 3.89844 125.42 3.88086 125.35 3.86914C125.279 3.8457 125.232 3.82227 125.209 3.79883C125.068 3.70508 124.957 3.59961 124.875 3.48242C124.793 3.36523 124.705 3.25391 124.611 3.14844C124.529 3.03125 124.436 2.91992 124.33 2.81445C124.225 2.70898 124.078 2.62109 123.891 2.55078C123.797 2.55078 123.615 2.54492 123.346 2.5332C123.088 2.50977 122.812 2.49219 122.52 2.48047C122.227 2.45703 121.945 2.43945 121.676 2.42773C121.418 2.4043 121.236 2.38672 121.131 2.375H120.217C120.205 2.375 120.152 2.36914 120.059 2.35742C119.977 2.33398 119.883 2.31641 119.777 2.30469C119.672 2.28125 119.572 2.26367 119.479 2.25195C119.385 2.22852 119.326 2.2168 119.303 2.2168H119.039H118.793C118.746 2.2168 118.641 2.22852 118.477 2.25195C118.324 2.26367 118.154 2.28125 117.967 2.30469C117.791 2.31641 117.621 2.33398 117.457 2.35742C117.305 2.36914 117.211 2.375 117.176 2.375H116.139C116.092 2.375 116.039 2.39258 115.98 2.42773C115.922 2.45117 115.893 2.47461 115.893 2.49805V4.67773C115.881 5.05273 115.828 5.41016 115.734 5.75C115.641 6.08984 115.594 6.43555 115.594 6.78711C115.594 7.31445 115.617 7.84766 115.664 8.38672C115.723 8.91406 115.752 9.45312 115.752 10.0039C115.752 10.3789 115.723 10.7598 115.664 11.1465C115.617 11.5332 115.594 11.9316 115.594 12.3418V12.4648C115.629 12.5 115.676 12.5527 115.734 12.623C115.793 12.6816 115.846 12.7109 115.893 12.7109H116.332H116.789C116.812 12.7109 116.865 12.7051 116.947 12.6934C117.029 12.6699 117.117 12.6523 117.211 12.6406C117.305 12.6172 117.387 12.5996 117.457 12.5879C117.539 12.5645 117.586 12.5527 117.598 12.5527H119.162C119.244 12.5527 119.391 12.5469 119.602 12.5352C119.824 12.5234 120.053 12.5176 120.287 12.5176C120.533 12.5059 120.762 12.4941 120.973 12.4824C121.184 12.4707 121.33 12.4648 121.412 12.4648C121.588 12.3125 121.717 12.0898 121.799 11.7969C121.881 11.4922 121.963 11.2402 122.045 11.041C122.057 11.0059 122.068 10.9238 122.08 10.7949C122.104 10.6543 122.127 10.5078 122.15 10.3555C122.174 10.2031 122.197 10.0625 122.221 9.93359C122.244 9.79297 122.268 9.70508 122.291 9.66992C122.291 9.6582 122.303 9.62891 122.326 9.58203C122.361 9.52344 122.396 9.4707 122.432 9.42383C122.467 9.36523 122.496 9.3125 122.52 9.26562C122.555 9.21875 122.578 9.18945 122.59 9.17773C122.637 9.02539 122.666 8.86133 122.678 8.68555C122.689 8.50977 122.719 8.35156 122.766 8.21094C122.812 8.05859 122.889 7.93555 122.994 7.8418C123.1 7.74805 123.27 7.70117 123.504 7.70117C123.762 7.70117 123.932 7.75977 124.014 7.87695C124.096 7.99414 124.137 8.1875 124.137 8.45703C124.137 8.55078 124.131 8.62109 124.119 8.66797C124.107 8.70312 124.084 8.78516 124.049 8.91406C124.049 8.92578 124.043 8.95508 124.031 9.00195C124.02 9.04883 124.014 9.10156 124.014 9.16016C124.014 9.25391 124.02 9.3418 124.031 9.42383C124.043 9.49414 124.049 9.54688 124.049 9.58203C124.037 9.65234 124.025 9.79883 124.014 10.0215C124.002 10.2441 123.984 10.502 123.961 10.7949C123.938 11.0879 123.914 11.4043 123.891 11.7441C123.867 12.0723 123.844 12.3887 123.82 12.6934C123.797 12.9863 123.773 13.2441 123.75 13.4668C123.738 13.6895 123.727 13.8418 123.715 13.9238C123.715 13.9473 123.721 14.0586 123.732 14.2578C123.744 14.4453 123.75 14.6387 123.75 14.8379C123.75 14.9316 123.738 15.0371 123.715 15.1543C123.691 15.2598 123.674 15.3301 123.662 15.3652C123.662 15.3652 123.65 15.3945 123.627 15.4531C123.615 15.5117 123.598 15.582 123.574 15.6641C123.562 15.7344 123.545 15.8047 123.521 15.875C123.51 15.9336 123.504 15.9746 123.504 15.998C123.504 16.0332 123.51 16.1152 123.521 16.2441C123.533 16.373 123.545 16.5137 123.557 16.666C123.58 16.8066 123.598 16.9414 123.609 17.0703C123.621 17.1875 123.627 17.2637 123.627 17.2988C123.627 17.3457 123.627 17.416 123.627 17.5098C123.639 17.5918 123.645 17.6797 123.645 17.7734C123.645 17.8555 123.645 17.9375 123.645 18.0195C123.656 18.1016 123.662 18.166 123.662 18.2129C123.662 18.4121 123.639 18.5938 123.592 18.7578C123.557 18.9219 123.475 19.1035 123.346 19.3027C123.334 19.3613 123.275 19.4258 123.17 19.4961C123.076 19.5547 123.018 19.584 122.994 19.584C122.971 19.584 122.906 19.5547 122.801 19.4961C122.695 19.4258 122.625 19.3613 122.59 19.3027C122.391 19.1387 122.25 18.9102 122.168 18.6172C122.098 18.3242 122.051 18.0078 122.027 17.668C122.004 17.3164 121.992 16.959 121.992 16.5957C121.992 16.2324 121.969 15.8984 121.922 15.5938C121.887 15.2773 121.811 15.0137 121.693 14.8027C121.576 14.5918 121.389 14.4629 121.131 14.416C121.037 14.4395 120.891 14.4512 120.691 14.4512C120.492 14.4512 120.275 14.4512 120.041 14.4512C119.795 14.4512 119.561 14.4512 119.338 14.4512C119.127 14.4512 118.986 14.4395 118.916 14.416C118.857 14.416 118.764 14.4102 118.635 14.3984C118.506 14.3867 118.371 14.3809 118.23 14.3809C118.102 14.3691 117.973 14.3574 117.844 14.3457C117.727 14.334 117.645 14.3281 117.598 14.3281C117.586 14.293 117.539 14.252 117.457 14.2051C117.375 14.1582 117.322 14.1348 117.299 14.1348H117.123C116.818 14.1348 116.525 14.2109 116.244 14.3633C115.975 14.5039 115.811 14.7324 115.752 15.0488C115.74 15.1309 115.711 15.2949 115.664 15.541C115.629 15.7754 115.588 16.0332 115.541 16.3145C115.506 16.5957 115.465 16.8711 115.418 17.1406C115.383 17.3984 115.359 17.5918 115.348 17.7207V17.8262V17.9492C115.348 18.043 115.354 18.1953 115.365 18.4062C115.377 18.6172 115.389 18.8457 115.4 19.0918C115.412 19.3262 115.424 19.5547 115.436 19.7773C115.459 19.9883 115.471 20.1348 115.471 20.2168C115.529 20.3105 115.564 20.3809 115.576 20.4277C115.588 20.4746 115.594 20.5273 115.594 20.5859C115.594 21.043 115.57 21.4883 115.523 21.9219C115.477 22.3555 115.453 22.8125 115.453 23.293C115.453 23.3398 115.453 23.4395 115.453 23.5918C115.465 23.7441 115.471 23.8496 115.471 23.9082C115.482 23.9316 115.512 23.9727 115.559 24.0312C115.605 24.0781 115.652 24.1309 115.699 24.1895C115.758 24.2363 115.816 24.2832 115.875 24.3301C115.934 24.377 115.975 24.4062 115.998 24.418C116.01 24.4414 116.062 24.459 116.156 24.4707C116.262 24.4824 116.379 24.4941 116.508 24.5059C116.637 24.5059 116.76 24.5176 116.877 24.541C117.006 24.5527 117.105 24.5645 117.176 24.5762C117.316 24.5762 117.557 24.582 117.896 24.5938C118.248 24.6055 118.617 24.6172 119.004 24.6289C119.402 24.6406 119.771 24.6523 120.111 24.6641C120.463 24.6641 120.709 24.6641 120.85 24.6641C120.99 24.7227 121.131 24.7637 121.271 24.7871C121.424 24.8105 121.57 24.8223 121.711 24.8223H122.203H122.994C123.006 24.8223 123.047 24.8164 123.117 24.8047C123.188 24.7812 123.264 24.7637 123.346 24.752C123.439 24.7285 123.521 24.7109 123.592 24.6992C123.662 24.6758 123.703 24.6641 123.715 24.6641H127.055C127.184 24.6289 127.307 24.5645 127.424 24.4707C127.541 24.3652 127.652 24.2539 127.758 24.1367C127.863 24.0078 127.957 23.8789 128.039 23.75C128.121 23.6094 128.191 23.4863 128.25 23.3809C128.285 23.3457 128.332 23.2637 128.391 23.1348C128.461 23.0059 128.525 22.8711 128.584 22.7305C128.654 22.5781 128.719 22.4375 128.777 22.3086C128.836 22.1797 128.871 22.1035 128.883 22.0801C128.906 22.0449 128.959 21.9746 129.041 21.8691C129.123 21.7637 129.164 21.6992 129.164 21.6758C129.176 21.6523 129.199 21.5879 129.234 21.4824C129.27 21.377 129.287 21.3125 129.287 21.2891C129.299 21.2773 129.328 21.2422 129.375 21.1836C129.434 21.125 129.492 21.0664 129.551 21.0078C129.609 20.9492 129.662 20.8906 129.709 20.832C129.756 20.7734 129.785 20.7324 129.797 20.709C129.809 20.6973 129.832 20.6621 129.867 20.6035C129.914 20.5332 129.955 20.457 129.99 20.375C130.037 20.2812 130.072 20.1992 130.096 20.1289C130.131 20.0469 130.154 19.9941 130.166 19.9707C130.189 19.9238 130.254 19.8535 130.359 19.7598C130.477 19.666 130.541 19.6074 130.553 19.584C130.576 19.5605 130.605 19.543 130.641 19.5312C130.676 19.5078 130.705 19.4844 130.729 19.4609C130.764 19.4375 130.799 19.4199 130.834 19.4082C130.881 19.4316 130.951 19.4902 131.045 19.584C131.139 19.6777 131.209 19.748 131.256 19.7949V19.8828C131.256 20.0234 131.232 20.1582 131.186 20.2871C131.15 20.416 131.133 20.5449 131.133 20.6738C131.133 20.8379 131.15 20.9844 131.186 21.1133C131.232 21.2305 131.256 21.3711 131.256 21.5352V21.6758C131.256 21.7109 131.232 21.7754 131.186 21.8691C131.15 21.9629 131.133 22.0332 131.133 22.0801V24.1367C131.121 24.2773 131.104 24.459 131.08 24.6816C131.057 24.8926 131.01 25.0977 130.939 25.2969C130.869 25.4844 130.77 25.6484 130.641 25.7891C130.512 25.9297 130.342 26 130.131 26H130.043C130.008 25.9883 129.949 25.9766 129.867 25.9648C129.785 25.9531 129.703 25.9414 129.621 25.9297C129.539 25.918 129.463 25.9062 129.393 25.8945C129.334 25.8828 129.299 25.877 129.287 25.877L129.182 25.8066C129.111 25.7598 129.076 25.7305 129.076 25.7188H128.971H128.883C128.473 25.8594 128.086 25.9297 127.723 25.9297C127.359 25.9297 126.979 25.9531 126.58 26C126.545 26 126.48 26.0059 126.387 26.0176C126.293 26.0293 126.188 26.041 126.07 26.0527C125.965 26.0762 125.865 26.0996 125.771 26.123C125.678 26.1465 125.619 26.1641 125.596 26.1758H125.508C125.297 26.1758 125.098 26.1465 124.91 26.0879C124.734 26.0293 124.529 26 124.295 26C124.271 26 124.207 26 124.102 26C124.008 25.9883 123.896 25.9824 123.768 25.9824C123.65 25.9824 123.527 25.9824 123.398 25.9824C123.281 25.9707 123.182 25.9648 123.1 25.9648ZM144.053 25.7891H143.648C143.637 25.7891 143.602 25.7949 143.543 25.8066C143.496 25.8184 143.443 25.8359 143.385 25.8594C143.326 25.8711 143.268 25.8828 143.209 25.8945C143.15 25.9062 143.115 25.9121 143.104 25.9121C142.506 25.9707 141.902 26.0059 141.293 26.0176C140.684 26.041 140.074 26.0527 139.465 26.0527C139.336 26.0527 139.172 26.0469 138.973 26.0352C138.785 26.0352 138.604 26.0117 138.428 25.9648C138.252 25.9062 138.1 25.8242 137.971 25.7188C137.842 25.6133 137.777 25.4609 137.777 25.2617C137.777 25.1094 137.812 24.957 137.883 24.8047C137.953 24.6523 138.053 24.5469 138.182 24.4883C138.299 24.4766 138.504 24.4648 138.797 24.4531C139.09 24.4414 139.395 24.4297 139.711 24.418C140.039 24.3945 140.35 24.377 140.643 24.3652C140.936 24.3418 141.141 24.3184 141.258 24.2949C141.328 24.2949 141.422 24.2949 141.539 24.2949C141.656 24.2832 141.773 24.2656 141.891 24.2422C142.02 24.207 142.131 24.166 142.225 24.1191C142.33 24.0723 142.412 24.0078 142.471 23.9258C142.611 23.6328 142.682 23.3223 142.682 22.9941V22.4492V21.043C142.682 21.0078 142.688 20.9258 142.699 20.7969C142.723 20.668 142.74 20.5273 142.752 20.375C142.775 20.2227 142.799 20.0762 142.822 19.9355C142.846 19.7949 142.857 19.707 142.857 19.6719C142.916 18.4531 142.951 17.2285 142.963 15.998C142.975 14.7676 142.98 13.543 142.98 12.3242C142.98 11.8086 142.975 11.3047 142.963 10.8125C142.951 10.3203 142.945 9.82812 142.945 9.33594C142.945 9.16016 142.945 8.87305 142.945 8.47461C142.957 8.06445 142.963 7.64258 142.963 7.20898C142.963 6.76367 142.963 6.34766 142.963 5.96094C142.975 5.5625 142.98 5.28711 142.98 5.13477C142.922 4.90039 142.84 4.70703 142.734 4.55469C142.641 4.39063 142.512 4.23242 142.348 4.08008C142.289 4.06836 142.184 4.05664 142.031 4.04492C141.891 4.02148 141.738 4.00391 141.574 3.99219C141.422 3.96875 141.27 3.95117 141.117 3.93945C140.977 3.92773 140.877 3.92188 140.818 3.92188C140.795 3.92188 140.736 3.93359 140.643 3.95703C140.561 3.96875 140.467 3.98633 140.361 4.00977C140.268 4.02148 140.174 4.03906 140.08 4.0625C139.986 4.07422 139.928 4.08008 139.904 4.08008C139.834 4.0918 139.688 4.09766 139.465 4.09766C139.254 4.09766 139.025 4.09766 138.779 4.09766C138.545 4.09766 138.322 4.09766 138.111 4.09766C137.9 4.09766 137.748 4.0918 137.654 4.08008C137.479 4.15039 137.285 4.20312 137.074 4.23828C136.863 4.26172 136.664 4.33789 136.477 4.4668C136.477 4.49023 136.441 4.53711 136.371 4.60742C136.301 4.67773 136.254 4.72461 136.23 4.74805C136.137 4.85352 136.008 5 135.844 5.1875C135.691 5.36328 135.539 5.54492 135.387 5.73242C135.234 5.91992 135.094 6.08398 134.965 6.22461C134.848 6.36523 134.783 6.44141 134.771 6.45312C134.689 6.55859 134.607 6.70508 134.525 6.89258C134.455 7.06836 134.373 7.24414 134.279 7.41992C134.186 7.58398 134.074 7.73047 133.945 7.85938C133.816 7.98828 133.658 8.05273 133.471 8.05273C133.33 8.05273 133.23 8.01758 133.172 7.94727C133.113 7.86523 133.066 7.77148 133.031 7.66602C133.031 7.63086 133.031 7.57812 133.031 7.50781C133.031 7.42578 133.025 7.34375 133.014 7.26172C133.014 7.16797 133.014 7.08008 133.014 6.99805C133.014 6.9043 133.014 6.83984 133.014 6.80469C133.014 6.76953 133.014 6.7168 133.014 6.64648C133.014 6.56445 133.014 6.48828 133.014 6.41797C133.025 6.33594 133.031 6.26562 133.031 6.20703C133.031 6.13672 133.031 6.0957 133.031 6.08398C133.043 6.04883 133.066 5.96094 133.102 5.82031C133.148 5.66797 133.195 5.50977 133.242 5.3457C133.289 5.18164 133.33 5.0293 133.365 4.88867C133.412 4.74805 133.447 4.66016 133.471 4.625C133.471 4.58984 133.482 4.51367 133.506 4.39648C133.529 4.2793 133.553 4.15625 133.576 4.02734C133.611 3.88672 133.641 3.76367 133.664 3.6582C133.688 3.54102 133.705 3.46484 133.717 3.42969C133.717 3.40625 133.734 3.3418 133.77 3.23633C133.816 3.13086 133.863 3.01367 133.91 2.88477C133.957 2.75586 133.998 2.63867 134.033 2.5332C134.08 2.42773 134.104 2.36328 134.104 2.33984C134.139 2.24609 134.174 2.14063 134.209 2.02344C134.256 1.89453 134.309 1.77734 134.367 1.67188C134.438 1.56641 134.52 1.47852 134.613 1.4082C134.707 1.32617 134.818 1.28516 134.947 1.28516C135.146 1.28516 135.305 1.33789 135.422 1.44336C135.551 1.54883 135.668 1.66602 135.773 1.79492C135.879 1.92383 135.984 2.05859 136.09 2.19922C136.195 2.32812 136.324 2.41602 136.477 2.46289C136.723 2.46289 136.98 2.45703 137.25 2.44531C137.52 2.43359 137.789 2.42773 138.059 2.42773C138.562 2.42773 139.061 2.43945 139.553 2.46289C140.045 2.48633 140.531 2.53906 141.012 2.62109C141.012 2.62109 141.035 2.63281 141.082 2.65625C141.129 2.66797 141.176 2.68555 141.223 2.70898C141.281 2.7207 141.334 2.73242 141.381 2.74414C141.439 2.75586 141.475 2.76172 141.486 2.76172H142.049C142.354 2.76172 142.629 2.73242 142.875 2.67383C143.133 2.61523 143.42 2.58594 143.736 2.58594C143.783 2.58594 143.848 2.58594 143.93 2.58594C144.023 2.58594 144.117 2.58594 144.211 2.58594C144.305 2.58594 144.387 2.5918 144.457 2.60352C144.527 2.60352 144.574 2.60937 144.598 2.62109C144.645 2.62109 144.738 2.63281 144.879 2.65625C145.031 2.66797 145.195 2.68555 145.371 2.70898C145.547 2.7207 145.705 2.73242 145.846 2.74414C145.998 2.75586 146.098 2.76172 146.145 2.76172C146.238 2.72656 146.35 2.69727 146.479 2.67383C146.619 2.65039 146.801 2.63281 147.023 2.62109C147.258 2.60937 147.551 2.60352 147.902 2.60352C148.254 2.5918 148.693 2.58594 149.221 2.58594L152.402 2.62109C152.602 2.62109 152.807 2.55664 153.018 2.42773C153.229 2.28711 153.439 2.12891 153.65 1.95312C153.861 1.76562 154.066 1.58398 154.266 1.4082C154.477 1.23242 154.682 1.10938 154.881 1.03906H155.092C155.432 1.03906 155.672 1.2207 155.812 1.58398C155.824 1.72461 155.848 1.98828 155.883 2.375C155.918 2.75 155.953 3.14844 155.988 3.57031C156.035 3.99219 156.082 4.39063 156.129 4.76562C156.176 5.14062 156.211 5.4043 156.234 5.55664C156.234 5.58008 156.24 5.62109 156.252 5.67969C156.264 5.73828 156.275 5.80859 156.287 5.89062C156.311 5.96094 156.328 6.03125 156.34 6.10156C156.352 6.16016 156.357 6.19531 156.357 6.20703V6.4707C156.357 6.77539 156.346 7.05078 156.322 7.29688C156.299 7.54297 156.27 7.82422 156.234 8.14062C156.188 8.23438 156.129 8.29883 156.059 8.33398C156 8.35742 155.941 8.36914 155.883 8.36914C155.848 8.36914 155.812 8.35156 155.777 8.31641C155.742 8.30469 155.713 8.28711 155.689 8.26367C155.514 8.18164 155.361 8.06445 155.232 7.91211C155.115 7.75977 155.01 7.5957 154.916 7.41992C154.834 7.24414 154.758 7.0625 154.688 6.875C154.617 6.67578 154.547 6.49414 154.477 6.33008C154.277 5.82617 153.949 5.42187 153.492 5.11719C153.047 4.8125 152.584 4.55469 152.104 4.34375C151.799 4.21484 151.5 4.15039 151.207 4.15039C150.914 4.15039 150.598 4.12695 150.258 4.08008C150.234 4.08008 150.146 4.05664 149.994 4.00977C149.854 3.95117 149.76 3.92188 149.713 3.92188H148.922H148.025C147.932 3.92188 147.797 3.94531 147.621 3.99219C147.445 4.02734 147.352 4.05664 147.34 4.08008C147.305 4.12695 147.264 4.17383 147.217 4.2207C147.135 4.32617 147.082 4.4082 147.059 4.4668C147.012 4.54883 146.959 4.66016 146.9 4.80078C146.842 4.92969 146.812 5 146.812 5.01172C146.801 5.04688 146.789 5.11133 146.777 5.20508C146.766 5.28711 146.754 5.375 146.742 5.46875C146.742 5.5625 146.736 5.65625 146.725 5.75C146.713 5.83203 146.701 5.89062 146.689 5.92578C146.689 6.11328 146.695 6.43555 146.707 6.89258C146.719 7.34961 146.725 7.8418 146.725 8.36914C146.725 8.89648 146.719 9.39453 146.707 9.86328C146.695 10.3203 146.689 10.6309 146.689 10.7949C146.689 11.3926 146.643 11.9785 146.549 12.5527C146.467 13.1152 146.426 13.6953 146.426 14.293C146.426 14.9375 146.443 15.582 146.479 16.2266C146.525 16.8594 146.549 17.5098 146.549 18.1777C146.549 18.9863 146.525 19.8008 146.479 20.6211C146.443 21.4414 146.426 22.2617 146.426 23.082C146.426 23.3281 146.479 23.5215 146.584 23.6621C146.701 23.8027 146.848 23.9082 147.023 23.9785C147.199 24.0488 147.393 24.0957 147.604 24.1191C147.826 24.1426 148.037 24.1602 148.236 24.1719C148.33 24.1836 148.477 24.1953 148.676 24.207C148.887 24.2188 149.104 24.2305 149.326 24.2422C149.561 24.2539 149.777 24.2656 149.977 24.2773C150.176 24.2891 150.316 24.2949 150.398 24.2949C150.621 24.377 150.785 24.5059 150.891 24.6816C151.008 24.8574 151.066 25.0508 151.066 25.2617C151.066 25.5312 150.99 25.7422 150.838 25.8945C150.686 26.0352 150.492 26.1816 150.258 26.334H150.223C149.789 26.334 149.385 26.2988 149.01 26.2285C148.646 26.1699 148.26 26.1113 147.85 26.0527C146.596 25.877 145.33 25.7891 144.053 25.7891Z" fill="black"/>
</svg>
